<svg enable-background="new 0 0 479.988 479.988" height="512" viewBox="0 0 479.988 479.988" width="512" xmlns="http://www.w3.org/2000/svg"><path d="m388.139 169.472c31.221-25.502 20.437-75.934-18.576-86.386-10.194-2.731-20.747-2.163-30.421 1.522l-30.998-53.691c-12.614-21.849-43.899-22.428-57.331-1.125-38.127 60.474-88.921 111.908-149.225 150.939-3.434 2.218-4.707 6.802-2.675 10.533.326.597 51.672 89.52 52.012 90.109 2.208 3.824 7.098 5.138 10.928 2.928 3.826-2.209 5.137-7.102 2.928-10.928l-48.15-83.4c57.501-38.44 108.427-89.331 147.717-151.648 7.027-11.147 23.361-10.801 29.939.592l110.996 192.251c6.586 11.408-1.31 25.712-14.457 26.224-73.757 2.874-145.97 21.739-211.993 55.507-.281.143-75.137 43.368-80.292 46.344-13.381 7.726-30.551 3.125-38.275-10.256l-40.521-70.187c-7.725-13.38-3.124-30.55 10.256-38.275l48.769-28.157c3.826-2.209 5.137-7.102 2.928-10.928-2.209-3.827-7.103-5.137-10.928-2.928l-48.769 28.157c-21.02 12.135-28.248 39.11-16.112 60.131l40.522 70.186c12.137 21.022 39.112 28.248 60.132 16.112l1.845-1.065 50.029 86.653c7.186 12.447 23.076 16.71 35.53 9.521l17.547-10.131c12.45-7.188 16.708-23.079 9.52-35.53l-35.457-61.413c-2.209-3.826-7.102-5.137-10.928-2.928s-5.137 7.102-2.928 10.928l35.457 61.413c2.766 4.791 1.128 10.907-3.664 13.673l-17.547 10.131c-4.791 2.766-10.907 1.127-13.673-3.664l-50.029-86.653 64.055-36.983c62.681-32.026 132.413-50.838 205.15-53.671 25.208-.983 40.285-28.399 27.689-50.212zm-2.285-55.254c7.898 13.68 5.061 30.656-5.872 41.125l-32.685-56.613c14.329-4.203 30.532 1.587 38.557 15.488zm78.246-35.567-20.699 11.951c-3.829 2.21-8.72.897-10.928-2.928-2.21-3.826-.898-8.719 2.928-10.928l20.699-11.951c3.829-2.21 8.72-.897 10.928 2.928 2.209 3.826.898 8.719-2.928 10.928zm-89.018-45.596 5.048-18.836c1.144-4.268 5.528-6.799 9.799-5.657 4.268 1.144 6.8 5.531 5.656 9.798l-5.048 18.836c-1.141 4.257-5.517 6.801-9.799 5.657-4.267-1.144-6.799-5.53-5.656-9.798zm104.631 131.019c-.958 3.574-4.19 5.931-7.723 5.931-1.448 0-.435.165-20.912-5.322-4.268-1.144-6.801-5.53-5.657-9.798s5.531-6.798 9.798-5.657l18.837 5.047c4.267 1.144 6.801 5.531 5.657 9.799z"/></svg>