<svg enable-background="new 0 0 479.986 479.986" height="512" viewBox="0 0 479.986 479.986" width="512" xmlns="http://www.w3.org/2000/svg"><path d="m391.444 273.38c-73.522 2.867-143.13 21.985-205.15 53.67l-79.75 46.05c-21.091 12.161-48.026 4.862-60.13-16.12l-40.53-70.18c-12.13-21.02-4.9-48 16.12-60.13l66.073-38.153c3.826-2.209 8.719-.899 10.929 2.928l51.918 89.925c2.248 3.893 7.274 5.185 11.132 2.807 3.731-2.3 4.75-7.298 2.558-11.094l-52.293-90.575c-2.077-3.598-1.057-8.191 2.358-10.558 54.547-37.818 100.695-85.985 136.135-142.16 13.426-21.299 44.711-20.729 57.33 1.12l110.99 192.26c12.614 21.802-2.488 49.23-27.69 50.21zm14.242-133.902c4.109-23.518-9.675-47.106-31.954-55.18-7.003-2.538-13.356 5.083-9.633 11.534 8.864 15.357 17.76 30.767 26.755 46.341 3.758 6.505 13.539 4.706 14.832-2.695zm-184.672 283.072-37.964-65.903c-2.206-3.83-7.105-5.143-10.934-2.934-20.575 11.871-21.353 12.332-48.798 28.174-3.827 2.209-5.143 7.105-2.933 10.932l38.029 65.861c4.875 8.434 13.642 13.02 22.57 13.02 8.66 0 11.972-2.93 30.51-13.63 12.42-7.17 16.69-23.11 9.52-35.52zm243.084-343.9c3.826-2.209 5.138-7.102 2.928-10.928-2.208-3.825-7.099-5.138-10.928-2.928l-20.699 11.951c-7.084 4.09-4.121 14.93 4.008 14.93 2.845-.001 2.275-.083 24.691-13.025zm-73.562-41.455 5.048-18.836c1.144-4.268-1.389-8.654-5.656-9.798-4.271-1.142-8.655 1.389-9.799 5.657l-5.048 18.836c-1.359 5.072 2.463 10.073 7.732 10.073 3.532-.001 6.765-2.358 7.723-5.932zm89.176 126.877c1.144-4.268-1.39-8.655-5.657-9.798l-18.837-5.047c-4.267-1.141-8.654 1.39-9.798 5.657s1.39 8.654 5.657 9.798c20.601 5.52 19.47 5.322 20.912 5.322 3.532 0 6.765-2.358 7.723-5.932z"/></svg>