<svg version="1.1" xmlns="http://www.w3.org/2000/svg" width="1024" height="1024" viewBox="0 0 1024 1024">
<path d="M981.333 0.001h-938.667c-23.552 0-42.666 19.114-42.666 42.666s19.114 42.666 42.666 42.666h938.667c23.552 0 42.666-19.114 42.666-42.666s-19.114-42.666-42.666-42.666z"></path>
<path d="M981.333 938.668h-938.667c-23.552 0-42.666 19.114-42.666 42.666s19.114 42.666 42.666 42.666h938.667c23.552 0 42.666-19.114 42.666-42.666s-19.114-42.666-42.666-42.666z"></path>
<path d="M810.666 320.001c23.552 0 42.666-19.114 42.666-42.666s-19.114-42.666-42.666-42.666h-597.334c-23.552 0-42.666 19.114-42.666 42.666s19.114 42.666 42.666 42.666z"></path>
<path d="M981.333 469.334h-938.667c-23.552 0-42.666 19.114-42.666 42.666s19.114 42.666 42.666 42.666h938.667c23.552 0 42.666-19.114 42.666-42.666s-19.114-42.666-42.666-42.666z"></path>
<path d="M810.666 789.334c23.552 0 42.666-19.114 42.666-42.666s-19.114-42.666-42.666-42.666h-597.334c-23.552 0-42.666 19.114-42.666 42.666s19.114 42.666 42.666 42.666z"></path>
</svg>
