<svg version="1.1" xmlns="http://www.w3.org/2000/svg" width="1024" height="1024" viewBox="0 0 1024 1024">
<path d="M981.334-0.001h-938.667c-23.552 0-42.667 19.115-42.667 42.667s19.115 42.667 42.667 42.667h938.667c23.552 0 42.667-19.115 42.667-42.667s-19.115-42.667-42.667-42.667z"></path>
<path d="M981.334 938.666h-938.667c-23.552 0-42.667 19.115-42.667 42.667s19.115 42.667 42.667 42.667h938.667c23.552 0 42.667-19.115 42.667-42.667s-19.115-42.667-42.667-42.667z"></path>
<path d="M981.334 234.666h-597.333c-23.552 0-42.667 19.115-42.667 42.667s19.115 42.667 42.667 42.667h597.333c23.552 0 42.667-19.115 42.667-42.667s-19.115-42.667-42.667-42.667z"></path>
<path d="M981.334 469.332h-938.667c-23.552 0-42.667 19.115-42.667 42.667s19.115 42.667 42.667 42.667h938.667c23.552 0 42.667-19.115 42.667-42.667s-19.115-42.667-42.667-42.667z"></path>
<path d="M981.334 703.999h-597.333c-23.552 0-42.667 19.115-42.667 42.667s19.115 42.667 42.667 42.667h597.333c23.552 0 42.667-19.115 42.667-42.667s-19.115-42.667-42.667-42.667z"></path>
</svg>
