<svg xmlns="http://www.w3.org/2000/svg" version="1.1" viewBox="0 0 512 512" width="512" height="512">
	<path d="M464.866,415.6H47.134C21.378,415.6,0,394.796,0,368.467V143.533C0,117.733,20.848,96.4,47.134,96.4h417.732  c25.756,0,47.134,20.804,47.134,47.133v224.934C512,394.267,491.152,415.6,464.866,415.6z M47.134,126.4  c-9.46,0-17.134,7.657-17.134,17.133v224.934c0,9.48,7.676,17.133,17.134,17.133h417.732c9.46,0,17.134-7.657,17.134-17.133V143.533  c0-9.48-7.676-17.133-17.134-17.133H47.134z"/>
	<path d="M95.317,188.783c-26.017,0-47.117,21.05-47.117,47.117v68.3c0,8.284,6.716,15,15,15s15-6.716,15-15v-17.134h34.267V304.2   c0,8.284,6.716,15,15,15s15-6.716,15-15v-68.283C142.467,209.928,121.322,188.783,95.317,188.783z M78.2,257.066V235.9   c0-9.443,7.633-17.117,17.133-17.117c9.447,0,17.134,7.687,17.134,17.134v21.149H78.2z"/>
	<path d="M239.934,192.8c-8.284,0-15,6.716-15,15v68.283c0,9.447-7.687,17.134-17.149,17.134c-9.435,0-17.117-7.631-17.117-17.117   v-68.3c0-8.284-6.716-15-15-15s-15,6.716-15,15v68.3c0,26.027,21.054,47.117,47.133,47.117c25.989,0,47.134-21.145,47.134-47.134   V207.8C254.934,199.516,248.218,192.8,239.934,192.8z"/>
	<path d="M416.667,188.783h-0.017c-26.016,0-47.117,21.051-47.117,47.117V276.1c0,26.027,21.055,47.117,47.134,47.117   c25.801,0,47.133-20.847,47.133-47.134v-40.166C463.8,209.996,442.846,188.783,416.667,188.783z M433.8,276.083   c0,9.378-7.575,17.134-17.149,17.134c-9.436,0-17.117-7.632-17.117-17.117V235.9c0-9.473,7.67-17.117,17.117-17.117h0.017   c9.44,0,17.133,7.638,17.133,17.134V276.083z"/>
	<path d="M344.366,192.8H280.1c-8.284,0-15,6.716-15,15s6.716,15,15,15h17.134v81.4c0,8.284,6.716,15,15,15s15-6.716,15-15v-81.4   h17.133c8.284,0,15-6.716,15-15S352.65,192.8,344.366,192.8z"/>
</svg>