<svg version="1.1" xmlns="http://www.w3.org/2000/svg" width="1058" height="1024" viewBox="0 0 1058 1024">
<path d="M752.541 31.248c0-17.259-13.99-31.249-31.249-31.249-17.253 0-31.249 13.99-31.249 31.249h62.497zM690.043 223.549c0 17.258 13.995 31.249 31.249 31.249 17.259 0 31.249-13.99 31.249-31.249h-62.497zM367.942 31.248c0-17.259-13.99-31.249-31.249-31.249-17.253 0-31.249 13.99-31.249 31.249h62.497zM305.443 223.549c0 17.258 13.995 31.249 31.249 31.249 17.259 0 31.249-13.99 31.249-31.249h-62.497zM96.318 384.6c-17.259 0-31.249 13.99-31.249 31.249s13.99 31.249 31.249 31.249v-62.497zM961.668 447.098c17.259 0 31.249-13.99 31.249-31.249s-13.99-31.249-31.249-31.249v62.497zM192.469 158.647h673.049v-62.497h-673.049v62.497zM865.519 158.647c35.845 0 64.901 29.058 64.901 64.901h62.497c0-70.36-57.037-127.399-127.399-127.399v62.497zM930.42 223.549v673.052h62.497v-673.052h-62.497zM930.42 896.601c0 35.845-29.056 64.901-64.901 64.901v62.497c70.363 0 127.399-57.037 127.399-127.399h-62.497zM865.519 961.502h-673.049v62.497h673.049v-62.497zM192.469 961.502c-35.844 0-64.901-29.056-64.901-64.901h-62.497c0 70.363 57.038 127.399 127.399 127.399v-62.497zM127.568 896.601v-673.052h-62.497v673.052h62.497zM127.568 223.549c0-35.844 29.058-64.901 64.901-64.901v-62.497c-70.36 0-127.399 57.038-127.399 127.399h62.497zM690.043 31.248v192.3h62.497v-192.3h-62.497zM305.443 31.248v192.3h62.497v-192.3h-62.497zM96.318 447.098h865.349v-62.497h-865.349v62.497z"></path>
</svg>
