<svg version="1.1" xmlns="http://www.w3.org/2000/svg" width="1024" height="1024" viewBox="0 0 1024 1024">
<path d="M989.93 234.585c-20.441-21.414-48.669-34.068-80.791-34.068h-161.582v-1.947c0-24.335-9.734-47.696-26.281-63.27-16.548-16.548-38.935-26.281-63.27-26.281h-292.015c-25.308 0-47.696 9.734-64.243 26.281s-26.281 38.935-26.281 63.27v1.947h-160.608c-32.122 0-60.35 12.654-80.791 34.068-20.441 20.441-34.068 49.643-34.068 80.791v484.745c0 32.122 12.654 60.35 34.068 80.791 20.441 20.441 49.643 34.068 80.791 34.068h794.282c32.122 0 60.35-12.654 80.791-34.068 20.441-20.441 34.068-49.643 34.068-80.791v-484.745c0-32.122-12.654-60.35-34.068-80.791zM973.382 800.121h-0.973c0 17.521-6.814 33.095-18.494 44.776s-27.255 18.494-44.776 18.494h-794.282c-17.521 0-33.095-6.814-44.776-18.494s-18.494-27.255-18.494-44.776v-484.745c0-17.521 6.814-33.095 18.494-44.776s27.255-18.494 44.776-18.494h187.863c14.601 0 26.281-11.681 26.281-26.281v-28.228c0-10.707 3.894-20.441 10.707-27.255s16.548-10.707 27.255-10.707h291.042c10.707 0 20.441 3.894 27.255 10.707s10.707 16.548 10.707 27.255v28.228c0 14.601 11.681 26.281 26.281 26.281h187.863c17.521 0 33.095 6.814 44.776 18.494s18.494 27.255 18.494 44.776v484.745z"></path>
<path d="M511.998 318.296c-66.19 0-126.54 27.255-169.369 70.084-43.802 43.802-70.084 103.179-70.084 169.369s27.255 126.54 70.084 169.369c43.802 43.802 103.179 70.084 169.369 70.084s126.54-27.255 169.369-70.084c43.802-43.802 70.084-103.179 70.084-169.369s-27.255-126.54-70.084-169.369c-42.829-42.829-103.179-70.084-169.369-70.084zM644.378 691.102c-34.068 33.095-80.791 54.51-132.38 54.51s-98.312-21.414-132.38-54.51c-34.068-34.068-54.51-80.791-54.51-132.38s21.414-98.312 54.51-132.38c34.068-34.068 80.791-54.51 132.38-54.51s98.312 21.414 132.38 54.51c34.068 34.068 54.51 80.791 54.51 132.38 0.973 51.589-20.441 98.312-54.51 132.38z"></path>
<path d="M906.219 365.018c0 26.342-21.354 47.696-47.696 47.696s-47.696-21.354-47.696-47.696c0-26.342 21.354-47.696 47.696-47.696s47.696 21.354 47.696 47.696z"></path>
</svg>
