<svg version="1.1" xmlns="http://www.w3.org/2000/svg" width="1024" height="1024" viewBox="0 0 1024 1024">
<path d="M572.035 512.267l438.946-438.946c16.941-16.362 17.411-43.358 1.049-60.3s-43.358-17.411-60.3-1.049c-0.355 0.342-0.705 0.692-1.049 1.049l-438.948 438.946-438.946-438.948c-16.941-16.362-43.938-15.892-60.3 1.049-15.962 16.527-15.962 42.726 0 59.253l438.946 438.946-438.946 438.946c-16.649 16.652-16.649 43.648 0 60.3 16.652 16.647 43.648 16.647 60.3 0l438.946-438.946 438.946 438.946c16.941 16.362 43.938 15.892 60.3-1.049 15.959-16.527 15.959-42.726 0-59.25l-438.943-438.946z"></path>
</svg>
