<svg version="1.1" xmlns="http://www.w3.org/2000/svg" width="1024" height="1024" viewBox="0 0 1024 1024">
<path d="M149.051 962.817h-72.558l51.307-51.307c27.664-27.664 44.939-63.645 49.584-102.678-72.189-47.374-124.977-109.701-153.234-181.178-28.237-71.423-31.786-150.048-10.261-227.376 25.827-92.786 86.403-177.357 170.565-238.138 91.458-66.046 205.312-100.957 329.257-100.957 156.137 0 287.744 44.859 380.586 129.725 83.64 76.457 129.703 179.585 129.703 290.392 0 53.834-10.962 106.215-32.579 155.688-22.371 51.195-55.128 96.779-97.362 135.484-92.967 85.2-224.491 130.236-380.349 130.236-57.859 0-118.234-7.724-172.138-21.898-51.022 52.341-120.162 82.007-192.521 82.007zM513.712 121.292c-248.528 0-401.027 148.215-441.915 295.105-38.638 138.812 18.319 269.975 152.362 350.866l14.977 9.038-0.461 17.486c-0.914 34.611-9.165 67.947-23.933 98.082 35.963-12.168 68.596-34.228 94.151-64.419l12.707-15.013 18.844 5.636c52.882 15.817 114.415 24.526 173.268 24.526 309.305 0 450.18-187.285 450.18-361.299 0-93.722-39.119-181.096-110.152-246.026-81.574-74.567-199.155-113.983-340.028-113.983z"></path>
</svg>
