<?xml version="1.0" encoding="iso-8859-1"?>
<!-- Generator: Adobe Illustrator 19.0.0, SVG Export Plug-In . SVG Version: 6.00 Build 0)  -->
<svg version="1.1" id="Capa_1" xmlns="http://www.w3.org/2000/svg" xmlns:xlink="http://www.w3.org/1999/xlink" x="0px" y="0px"
	 viewBox="0 0 512 512" style="enable-background:new 0 0 512 512;" xml:space="preserve">
<g>
	<g>
		<path d="M509.857,312.555l-86.261-143.779l77.415-21.504c7.983-2.217,12.655-10.485,10.439-18.467
			c-2.218-7.982-10.488-12.656-18.468-10.438l-96.231,26.73c-0.007,0.002-0.014,0.004-0.021,0.006L271,180.027V15.004
			c0-8.284-6.716-15-15-15s-15,6.716-15,15V188.36l-133.443,37.066c-0.007,0.002-0.014,0.004-0.021,0.005l-96.547,26.818
			c-7.983,2.217-12.655,10.485-10.439,18.467c1.845,6.639,7.874,10.989,14.444,10.989c1.329,0,2.681-0.178,4.023-0.551
			l60.186-16.718L2.143,392.885c-1.398,2.331-2.138,4.999-2.138,7.717c0,61.423,49.973,111.394,111.397,111.394
			c61.426,0,111.398-49.971,111.398-111.394c0-2.718-0.739-5.386-2.138-7.717l-86.262-143.78l233.997-64.997l-77.06,128.447
			c-1.398,2.331-2.138,4.999-2.138,7.717c0,61.424,49.973,111.395,111.397,111.395c29.755,0,57.729-11.587,78.771-32.628
			c21.041-21.041,32.628-49.014,32.626-78.769C511.995,317.553,511.256,314.885,509.857,312.555z M111.402,481.997
			c-39.757,0-72.933-28.658-79.996-66.396h159.992C184.336,453.339,151.16,481.997,111.402,481.997z M181.31,385.601H41.496
			l69.906-116.52L181.31,385.601z M400.596,188.752l69.909,116.519H330.689L400.596,188.752z M400.598,401.668
			c-39.757,0-72.934-28.658-79.998-66.396h159.995C473.531,373.01,440.356,401.668,400.598,401.668z"/>
	</g>
</g>
<g>
</g>
<g>
</g>
<g>
</g>
<g>
</g>
<g>
</g>
<g>
</g>
<g>
</g>
<g>
</g>
<g>
</g>
<g>
</g>
<g>
</g>
<g>
</g>
<g>
</g>
<g>
</g>
<g>
</g>
</svg>
