<svg version="1.1" xmlns="http://www.w3.org/2000/svg" width="1422" height="1024" viewBox="0 0 1422 1024">
<path d="M1302.84 261.902c-14.375-12.267-34.663-14.859-51.66-6.586l-260.16 126.651-244.106-281.448c-9.029-10.408-22.139-16.386-35.918-16.386s-26.882 5.979-35.911 16.386l-244.112 281.446-260.16-126.651c-17.005-8.271-37.282-5.693-51.665 6.586s-20.124 31.9-14.619 49.999l180.658 594.27c6.086 20.022 24.561 33.708 45.486 33.708h760.668c20.926 0 39.402-13.685 45.484-33.708l180.656-594.266c5.499-18.093-0.241-37.714-14.619-49.999zM1056.077 844.8h-690.191l-138.707-456.279 194.971 94.918c19.362 9.428 42.627 4.669 56.73-11.594l232.105-267.61 232.111 267.61c14.093 16.267 37.372 21.019 56.725 11.594l194.972-94.918-138.717 456.279z"></path>
</svg>
