<svg height="512pt" viewBox="0 -66 512.001 512" width="512pt" xmlns="http://www.w3.org/2000/svg"><path d="m322.285156 335.644531c-7.441406 0-13.898437-5.53125-14.863281-13.105469-1.042969-8.21875 4.769531-15.726562 12.984375-16.773437 47.398438-6.039063 89.84375-18.882813 119.515625-36.171875 27.136719-15.808594 42.078125-34.394531 42.078125-52.332031 0-19.769531-17.484375-35.945313-32.15625-46.039063-6.824219-4.695312-8.550781-14.03125-3.855469-20.859375 4.695313-6.824219 14.035157-8.550781 20.859375-3.855469 29.539063 20.320313 45.152344 44.785157 45.152344 70.757813 0 29.476563-19.699219 56.535156-56.972656 78.25-33.550782 19.546875-78.789063 33.382813-130.828125 40.011719-.644531.078125-1.285157.117187-1.914063.117187zm0 0"/><path d="m252.34375 314.15625-40-40c-5.859375-5.859375-15.355469-5.859375-21.214844 0-5.855468 5.855469-5.855468 15.355469 0 21.210938l11.6875 11.6875c-44.8125-4.628907-85.523437-15.0625-117.046875-30.222657-35.441406-17.042969-55.769531-38.757812-55.769531-59.570312 0-17.652344 14.554688-36 40.980469-51.664063 7.128906-4.222656 9.480469-13.425781 5.257812-20.550781-4.226562-7.128906-13.429687-9.480469-20.554687-5.257813-46.023438 27.28125-55.683594 57.1875-55.683594 77.472657 0 33.28125 25.84375 64.039062 72.769531 86.609375 36.421875 17.511718 83.535157 29.242187 134.863281 33.78125l-16.503906 16.503906c-5.855468 5.855469-5.855468 15.355469 0 21.214844 2.929688 2.925781 6.769532 4.390625 10.609375 4.390625 3.835938 0 7.675781-1.464844 10.605469-4.390625l40-40c5.855469-5.859375 5.855469-15.359375 0-21.214844zm0 0"/><path d="m157.097656 187.222656v-3.609375c0-12.730469-7.792968-15.199219-18.242187-15.199219-6.460938 0-8.550781-5.699218-8.550781-11.398437 0-5.703125 2.089843-11.402344 8.550781-11.402344 7.21875 0 14.820312-.949219 14.820312-16.339843 0-11.019532-6.269531-13.679688-14.0625-13.679688-9.308593 0-14.058593 2.28125-14.058593 9.691406 0 6.457032-2.851563 10.828125-13.871094 10.828125-13.679688 0-15.386719-2.851562-15.386719-11.972656 0-14.816406 10.636719-34.007813 43.316406-34.007813 24.132813 0 42.371094 8.738282 42.371094 34.390626 0 13.867187-5.128906 26.789062-14.628906 31.160156 11.210937 4.179687 19.378906 12.539062 19.378906 27.929687v3.609375c0 31.160156-21.46875 42.941406-48.070313 42.941406-32.679687 0-45.21875-19.949218-45.21875-35.910156 0-8.550781 3.609376-10.832031 14.058594-10.832031 12.160156 0 15.199219 2.660156 15.199219 9.882813 0 8.929687 8.363281 11.019531 16.910156 11.019531 12.921875 0 17.484375-4.75 17.484375-17.101563zm0 0"/><path d="m302.066406 183.613281v1.710938c0 32.679687-20.332031 44.839843-46.550781 44.839843s-46.742187-12.160156-46.742187-44.839843v-50.351563c0-32.679687 21.089843-44.839844 48.453124-44.839844 32.109376 0 44.839844 19.949219 44.839844 35.71875 0 9.121094-4.371094 11.96875-13.871094 11.96875-8.167968 0-15.390624-2.089843-15.390624-10.828124 0-7.21875-7.597657-11.019532-16.527344-11.019532-11.210938 0-17.863282 5.890625-17.863282 19v17.097656c6.082032-6.648437 14.632813-8.359374 23.753907-8.359374 21.65625 0 39.898437 9.5 39.898437 39.902343zm-63.652344 3.800781c0 13.109376 6.460938 18.808594 17.101563 18.808594s16.910156-5.699218 16.910156-18.808594v-1.710937c0-13.871094-6.269531-19.191406-17.101562-19.191406-10.257813 0-16.910157 4.941406-16.910157 17.480469zm0 0"/><path d="m325.054688 185.324219v-50.351563c0-32.679687 20.328124-44.839844 46.550781-44.839844 26.21875 0 46.738281 12.160157 46.738281 44.839844v50.351563c0 32.679687-20.519531 44.839843-46.738281 44.839843-26.222657 0-46.550781-12.160156-46.550781-44.839843zm63.648437-50.351563c0-13.109375-6.457031-19-17.097656-19s-16.910157 5.890625-16.910157 19v50.351563c0 13.109375 6.269532 19 16.910157 19s17.097656-5.890625 17.097656-19zm0 0"/><path d="m454.351562 90c-24.816406 0-45-20.1875-45-45s20.183594-45 45-45c24.8125 0 45 20.1875 45 45s-20.1875 45-45 45zm0-60c-8.273437 0-15 6.730469-15 15 0 8.273438 6.726563 15 15 15 8.269532 0 15-6.726562 15-15 0-8.269531-6.730468-15-15-15zm0 0"/></svg>