<svg version="1.1" xmlns="http://www.w3.org/2000/svg" width="1024" height="1024" viewBox="0 0 1024 1024">
<path d="M512 0c-282.767 0-512 229.233-512 512s229.233 512 512 512 512-229.233 512-512c-0.317-282.633-229.367-511.683-512-512zM954.808 691.367l-145.608 25.125c16.667-61.125 25.667-124.083 26.792-187.425h153.45c-1.925 55.717-13.65 110.658-34.633 162.3zM34.558 529.067h153.45c1.125 63.342 10.125 126.3 26.792 187.425l-145.608-25.125c-20.983-51.642-32.708-106.583-34.633-162.3zM69.192 332.633l145.608-25.125c-16.667 61.125-25.667 124.083-26.792 187.425h-153.45c1.925-55.717 13.65-110.658 34.633-162.3zM529.067 274.025c61.325 0.783 122.5 6.367 182.958 16.708l60.242 10.392c18.508 62.983 28.467 128.167 29.608 193.808h-272.808zM717.842 257.092c-62.375-10.658-125.5-16.417-188.775-17.2v-204.8c97.842 9.4 182.833 98.983 231 229.358zM494.933 239.892c-63.275 0.783-126.383 6.542-188.758 17.2l-42.242 7.308c48.167-130.408 133.158-220.025 231-229.383zM311.992 290.733c60.45-10.342 121.617-15.925 182.942-16.708v220.908h-272.808c1.142-65.642 11.1-130.825 29.608-193.808zM222.125 529.067h272.808v220.908c-61.325-0.783-122.5-6.367-182.958-16.708l-60.242-10.392c-18.508-62.983-28.467-128.167-29.608-193.808zM306.158 766.908c62.375 10.675 125.492 16.458 188.775 17.292v204.8c-97.842-9.408-182.833-98.992-231-229.367zM529.067 784.2c63.275-0.833 126.383-6.617 188.758-17.292l42.242-7.308c-48.167 130.408-133.158 220.025-231 229.383zM712.008 733.267c-60.45 10.342-121.617 15.925-182.942 16.708v-220.908h272.808c-1.142 65.642-11.1 130.825-29.608 193.808zM835.992 494.933c-1.125-63.342-10.125-126.3-26.792-187.425l145.608 25.125c20.983 51.642 32.708 106.583 34.633 162.3zM937.542 295.017l-139.575-24.083c-25.092-81.858-72.033-155.325-135.783-212.483 119.208 39.783 218.067 124.708 275.358 236.567zM361.817 58.45c-63.75 57.158-110.692 130.625-135.783 212.483l-139.575 24.083c57.292-111.858 156.15-196.783 275.358-236.567zM86.458 728.983l139.575 24.083c25.092 81.858 72.033 155.325 135.783 212.483-119.208-39.783-218.067-124.708-275.358-236.567zM662.183 965.55c63.75-57.158 110.692-130.625 135.783-212.483l139.575-24.083c-57.292 111.858-156.15 196.783-275.358 236.567z"></path>
</svg>
