<svg version="1.1" xmlns="http://www.w3.org/2000/svg" width="1024" height="1024" viewBox="0 0 1024 1024">
<path d="M896.481 6.873c-4.442-4.442-10.479-6.91-16.762-6.844-6.259 0.045-12.253 2.491-16.754 6.844l-339.43 339.43c-0.465 0.709-1.175 1.419-1.648 2.121 0 0.237-0.237 0.237-0.237 0.473-0.473 0.702-0.717 1.183-1.183 1.885-0.244 0.237-0.244 0.48-0.473 0.709-0.237 0.709-0.465 1.183-0.709 1.892 0 0.237-0.237 0.237-0.237 0.465l-60.194 181.521c-2.882 8.447-0.687 17.81 5.676 24.078 4.457 4.397 10.479 6.859 16.747 6.844 2.564-0.051 5.114-0.444 7.561-1.183l181.048-60.424c0.229 0 0.229 0 0.465-0.237 0.747-0.214 1.471-0.532 2.121-0.939 0.185-0.030 0.355-0.111 0.48-0.244 0.702-0.465 1.648-0.939 2.357-1.419 0.702-0.473 1.411-1.183 2.121-1.648 0.244-0.229 0.473-0.229 0.473-0.473 0.237-0.237 0.709-0.473 0.954-0.939l338.233-338.248c4.427-4.419 6.91-10.405 6.91-16.643 0-6.245-2.483-12.238-6.91-16.643zM551.864 405.307l66.801 66.801-100.088 33.279zM662.334 448.976l-87.339-87.331 304.725-304.732 87.331 87.331z"></path>
<path d="M840.773 441.186c-13.022 0.037-23.568 10.582-23.604 23.604v441.165c-0.111 39.058-31.742 70.688-70.814 70.814h-628.331c-39.058-0.126-70.703-31.756-70.814-70.814v-628.346c0.111-39.058 31.756-70.696 70.814-70.814h441.15c13.044 0 23.604-10.569 23.604-23.604s-10.561-23.604-23.604-23.604h-441.15c-65.176 0.030-117.994 52.856-118.024 118.024v628.346c0.030 65.168 52.848 117.994 118.024 118.016h628.331c65.176-0.022 118.001-52.848 118.024-118.016v-441.165c-0.037-13.022-10.582-23.568-23.604-23.604z"></path>
</svg>
