<svg xmlns="http://www.w3.org/2000/svg" height="137pt" version="1.1" viewBox="-22 0 137 137.82345" width="137pt">
<path d="M 24.421875 137.488281 C 24.734375 137.707031 25.105469 137.824219 25.488281 137.824219 C 26.523438 137.808594 27.347656 136.960938 27.332031 135.925781 C 27.328125 135.660156 27.265625 135.394531 27.148438 135.144531 C 15.699219 96.917969 32.699219 78.496094 39.96875 72.648438 C 39.355469 97.324219 52.636719 115.832031 53.28125 116.644531 C 53.746094 117.277344 54.566406 117.550781 55.324219 117.328125 C 59.167969 116.167969 65.066406 112.34375 68.699219 109.855469 C 67.683594 119.75 63.523438 135.234375 63.476562 135.40625 C 63.210938 136.402344 63.796875 137.429688 64.796875 137.699219 C 65.355469 137.847656 65.949219 137.726562 66.410156 137.378906 C 67.222656 136.75 86.324219 121.777344 92.476562 96.601562 C 98.699219 71.226562 81.273438 46.445312 80.589844 45.414062 C 79.996094 44.574219 78.828125 44.371094 77.988281 44.960938 C 77.441406 45.351562 77.144531 45.996094 77.203125 46.660156 C 77.894531 59.230469 74.957031 71.738281 68.738281 82.691406 C 69.875 76.03125 70.457031 66.226562 69.335938 51.9375 C 66.472656 15.941406 33.777344 0.324219 33.445312 0.175781 C 32.507812 -0.261719 31.398438 0.144531 30.964844 1.082031 C 30.816406 1.398438 30.761719 1.757812 30.804688 2.105469 C 32.699219 16.890625 29.25 23.421875 20.027344 40.875 C 16.292969 47.914062 11.675781 56.679688 6.136719 68.386719 C -13.613281 110.167969 24.035156 137.226562 24.421875 137.488281 Z M 9.484375 69.984375 C 14.988281 58.34375 19.605469 49.621094 23.300781 42.601562 C 31.925781 26.273438 35.894531 18.769531 34.851562 5.191406 C 42.71875 9.878906 63.390625 24.730469 65.527344 52.207031 C 67.445312 76.804688 64.285156 87.34375 62.246094 91.4375 C 61.949219 92.085938 61.566406 92.6875 61.109375 93.230469 C 60.390625 93.96875 60.402344 95.152344 61.140625 95.871094 C 61.847656 96.5625 62.96875 96.582031 63.699219 95.917969 C 74.242188 84.179688 80.34375 69.117188 80.9375 53.34375 C 85.601562 61.929688 92.90625 78.964844 88.804688 95.796875 C 84.757812 112.359375 74.515625 124.503906 68.566406 130.433594 C 70.222656 123.574219 72.625 112.542969 72.625 106.175781 C 72.625 105.144531 71.789062 104.304688 70.761719 104.304688 C 70.359375 104.304688 69.972656 104.429688 69.652344 104.667969 C 69.550781 104.746094 60.933594 111.113281 55.484375 113.304688 C 52.511719 108.738281 42.082031 90.816406 43.898438 69.070312 C 43.988281 68.046875 43.226562 67.140625 42.199219 67.054688 C 41.820312 67.019531 41.441406 67.101562 41.113281 67.292969 C 40.835938 67.464844 10.96875 85.09375 22.167969 130.765625 C 13.144531 122.429688 -5.027344 100.722656 9.511719 69.984375 Z M 9.484375 69.984375" />
</svg>