<!-- Generated by IcoMoon.io -->
<svg version="1.1" xmlns="http://www.w3.org/2000/svg" width="1100" height="1024" viewBox="0 0 1100 1024">
<title></title>
<g id="icomoon-ignore">
</g>
<path fill="#000" d="M666.701 803.496v-101.887c-0.008-5.628-1.442-11.153-4.175-16.024s-6.651-8.922-11.372-11.735l-85.528-50.953c-4.725-2.818-10.095-4.294-15.546-4.294s-10.819 1.477-15.546 4.294l-85.527 50.953c-4.719 2.814-8.652 6.865-11.372 11.735s-4.167 10.396-4.176 16.024v101.887c-0.010 5.651 1.43 11.185 4.15 16.071s6.661 8.939 11.396 11.77l85.527 50.95c4.725 2.814 10.095 4.292 15.546 4.292s10.819-1.479 15.546-4.292l85.528-50.95c4.734-2.831 8.661-6.878 11.396-11.77s4.16-10.434 4.15-16.071z"></path>
<path fill="#000" d="M953.795 803.496v-101.887c0-5.628-1.496-11.153-4.338-16.024-2.837-4.87-6.912-8.922-11.812-11.735l-88.82-50.953c-4.901-2.818-10.481-4.294-16.155-4.294-5.661 0-11.232 1.477-16.155 4.294l-88.816 50.953c-4.901 2.814-8.981 6.865-11.812 11.735s-4.335 10.396-4.338 16.024v101.887c-0.012 5.651 1.477 11.185 4.315 16.071s6.917 8.939 11.84 11.77l88.816 50.95c4.909 2.814 10.481 4.292 16.155 4.292s11.238-1.479 16.155-4.292l88.82-50.95c4.918-2.831 8.999-6.878 11.841-11.77 2.837-4.892 4.326-10.434 4.309-16.071z"></path>
<path fill="#000" d="M523.147 556.153v-98.503c0.023-5.463-1.404-10.845-4.139-15.586s-6.672-8.675-11.419-11.413l-85.527-49.092c-4.726-2.723-10.095-4.15-15.546-4.15s-10.819 1.43-15.546 4.15l-85.528 49.092c-4.719 2.72-8.652 6.636-11.372 11.338s-4.167 10.059-4.175 15.499v98.504c-0.011 5.458 1.43 10.81 4.15 15.543s6.662 8.652 11.396 11.372l85.528 49.405c4.725 2.724 10.095 4.15 15.546 4.15s10.819-1.43 15.546-4.15l85.527-49.252c4.734-2.729 8.661-6.647 11.396-11.372s4.16-10.084 4.15-15.543z"></path>
<path fill="#000" d="M810.251 556.249v-98.552c-0.008-5.445-1.445-10.792-4.182-15.499-2.729-4.713-6.65-8.625-11.372-11.348l-85.529-49.275c-4.725-2.726-10.095-4.153-15.546-4.153s-10.819 1.43-15.546 4.153l-85.528 49.124c-4.719 2.722-8.652 6.636-11.372 11.348s-4.167 10.059-4.175 15.499v98.552c-0.011 5.463 1.43 10.814 4.15 15.546s6.662 8.652 11.396 11.376l85.528 49.275c4.725 2.726 10.095 4.153 15.546 4.153s10.819-1.43 15.546-4.153l85.529-49.275c4.713-2.713 8.627-6.618 11.356-11.319 2.738-4.701 4.174-10.026 4.197-15.452z"></path>
<path fill="#000" d="M388.564 803.496v-101.887c-0.008-5.628-1.501-11.153-4.338-16.024s-6.914-8.922-11.812-11.735l-88.82-50.953c-4.905-2.818-10.481-4.294-16.155-4.294s-11.233 1.477-16.155 4.294l-88.82 50.953c-4.901 2.814-8.981 6.865-11.812 11.735s-4.335 10.396-4.338 16.024v101.887c-0.011 5.651 1.477 11.185 4.316 16.071s6.917 8.939 11.84 11.77l88.82 50.95c4.905 2.814 10.481 4.292 16.155 4.292s11.233-1.479 16.155-4.292l88.82-50.95c4.914-2.831 8.997-6.878 11.839-11.77s4.327-10.434 4.316-16.071v0z"></path>
<path fill="#000" d="M666.701 314.964v-98.503c-0.008-5.44-1.442-10.782-4.175-15.499s-6.651-8.618-11.372-11.339l-85.528-49.252c-4.725-2.724-10.095-4.15-15.546-4.15s-10.819 1.43-15.546 4.15l-85.527 49.252c-4.719 2.72-8.652 6.636-11.372 11.339s-4.167 10.059-4.176 15.499v98.503c-0.010 5.458 1.43 10.81 4.15 15.543s6.661 8.652 11.396 11.372l85.527 49.252c4.725 2.724 10.095 4.15 15.546 4.15s10.819-1.43 15.546-4.15l85.528-49.252c4.734-2.729 8.661-6.647 11.396-11.372s4.16-10.084 4.15-15.543z"></path>
</svg>
