<svg version="1.1" xmlns="http://www.w3.org/2000/svg" width="1024" height="1024" viewBox="0 0 1024 1024">
<path d="M295.364 347.724c49.72-65.408 128.324-107.724 216.636-107.724 72.652 0 140.958 28.292 192.334 79.666l21.212 21.212 169.706-169.704-21.212-21.212c-96.704-96.704-225.278-149.962-362.040-149.962-136.76 0-265.334 53.258-362.040 149.96-8.778 8.78-17.188 17.828-25.244 27.114z"></path>
<path d="M846.924 899.284c9.286-8.056 18.336-16.466 27.116-25.244 96.702-96.706 149.96-225.28 149.96-362.040 0-31.15-2.82-62.358-8.384-92.754l-4.502-24.598h-529.114v240h272.904c-18.874 37.546-45.872 69.558-78.398 94.218z"></path>
<path d="M623.204 760.416c-34.182 15.246-71.894 23.584-111.204 23.584-88.312 0-166.916-42.316-216.636-107.724l-170.648 170.648c8.056 9.286 16.466 18.336 25.244 27.114 96.706 96.704 225.28 149.962 362.040 149.962 103.832 0 202.928-30.726 286.958-87.83z"></path>
<path d="M263.726 623.062c-15.238-33.93-23.726-71.522-23.726-111.062s8.488-77.132 23.726-111.062l-175.896-175.896c-57.104 84.030-87.83 183.126-87.83 286.958s30.726 202.928 87.83 286.958z"></path>
</svg>
