<?xml version="1.0" encoding="iso-8859-1"?>
<!-- Generator: Adobe Illustrator 19.0.0, SVG Export Plug-In . SVG Version: 6.00 Build 0)  -->
<svg version="1.1" id="Capa_1" xmlns="http://www.w3.org/2000/svg" xmlns:xlink="http://www.w3.org/1999/xlink" x="0px" y="0px"
	 viewBox="0 0 368 368" style="enable-background:new 0 0 368 368;" xml:space="preserve">
<g>
	<g>
		<path d="M352,256h-48v-72c0-4.416-3.584-8-8-8H192v-64h48c8.824,0,16-7.176,16-16V16c0-8.824-7.176-16-16-16H128
			c-8.824,0-16,7.176-16,16v80c0,8.824,7.176,16,16,16h48v64H72c-4.416,0-8,3.584-8,8v72H16c-8.824,0-16,7.176-16,16v80
			c0,8.824,7.176,16,16,16h112c8.824,0,16-7.176,16-16v-80c0-8.824-7.176-16-16-16H80v-64h208v64h-48c-8.824,0-16,7.176-16,16v80
			c0,8.824,7.176,16,16,16h112c8.824,0,16-7.176,16-16v-80C368,263.176,360.824,256,352,256z M128,271.992V352H16v-80l55.952-0.008
			c0.016,0,0.032,0.008,0.048,0.008s0.032-0.008,0.048-0.008H128z M128,96V16l112-0.008V96H128z M352,352H240v-80l55.952-0.008
			c0.016,0,0.032,0.008,0.048,0.008s0.032-0.008,0.048-0.008H352V352z"/>
	</g>
</g>
<g>
</g>
<g>
</g>
<g>
</g>
<g>
</g>
<g>
</g>
<g>
</g>
<g>
</g>
<g>
</g>
<g>
</g>
<g>
</g>
<g>
</g>
<g>
</g>
<g>
</g>
<g>
</g>
<g>
</g>
</svg>
