<svg version="1.1" xmlns="http://www.w3.org/2000/svg" width="1024" height="1024" viewBox="0 0 1024 1024">
<path d="M746.813 0h-469.625c-152.843 0-277.188 124.344-277.188 277.188v469.633c0 152.836 124.344 277.18 277.188 277.18h469.633c152.836 0 277.18-124.344 277.18-277.18v-469.633c0-152.843-124.344-277.188-277.188-277.188zM963.97 746.82c0 119.734-97.414 217.148-217.156 217.148h-469.625c-119.742 0-217.156-97.414-217.156-217.148v-469.633c0-119.742 97.414-217.156 217.156-217.156h469.633c119.734 0 217.148 97.414 217.148 217.156z"></path>
<path d="M512.001 232.007c-154.39 0-279.993 125.601-279.993 279.993s125.601 279.993 279.993 279.993 279.993-125.601 279.993-279.993-125.601-279.993-279.993-279.993zM512.001 731.961c-121.281 0-219.961-98.672-219.961-219.961 0-121.281 98.68-219.961 219.961-219.961 121.289 0 219.961 98.68 219.961 219.961 0 121.289-98.672 219.961-219.961 219.961z"></path>
<path d="M798.689 132.57c-45.625 0-82.734 37.117-82.734 82.734 0 45.625 37.109 82.742 82.734 82.742s82.742-37.117 82.742-82.742-37.117-82.734-82.742-82.734zM798.689 238.007c-12.516 0-22.703-10.187-22.703-22.703 0-12.523 10.187-22.703 22.703-22.703 12.523 0 22.711 10.18 22.711 22.703 0 12.516-10.187 22.703-22.711 22.703z"></path>
</svg>
