<?xml version="1.0" encoding="iso-8859-1"?>
<!-- Generator: Adobe Illustrator 18.1.1, SVG Export Plug-In . SVG Version: 6.00 Build 0)  -->
<svg version="1.1" id="Capa_1" xmlns="http://www.w3.org/2000/svg" xmlns:xlink="http://www.w3.org/1999/xlink" x="0px" y="0px"
	 viewBox="0 0 13.683 13.683" style="enable-background:new 0 0 13.683 13.683;" xml:space="preserve">
<g>
	<path style="fill:#030104;" d="M12.054,0c-0.178,0-0.355,0-0.533,0c-0.5,0.073-1.227,0.302-1.836,0.592
		c-0.506,0.241-1.082,0.761-1.482,0.83c-0.291,0.05-0.604-0.099-0.888-0.119c-3.636-0.26-5.938,2.295-6.279,5.894
		c1.25-1.476,2.987-3.855,4.976-4.591c-2.868,2.126-5.469,5.647-5.627,8.708c0,0.178,0,0.355,0,0.533
		c0.167,0.979,0.594,1.695,1.599,1.836c0.158,0,0.316,0,0.474,0c1.443-0.195,2.441-0.838,3.436-1.48
		c3.687,0.529,6.054-1.188,6.931-3.852c-1.303,0-2.607,0-3.91,0c-0.41,2.002-4.099,1.49-3.613-0.77c2.527,0,5.054,0,7.582,0
		c0.197-3.634-1.594-5.277-4.205-6.101c0.813-0.49,3.246-1.913,4.205-0.711c0.422,0.53,0.162,1.643,0.059,2.251
		c0.182-0.372,0.238-0.869,0.355-1.303c0-0.178,0-0.355,0-0.533C13.175,0.496,12.738,0.125,12.054,0z M5.596,12.112
		c-0.743,0.494-3.199,1.691-4.028,0.533c-0.585-0.816,0.115-2.072,0.415-2.783C2.845,10.954,3.97,11.784,5.596,12.112z M9.019,5.532
		L5.347,5.534C5.205,3.266,9.261,3.101,9.019,5.532z"/>
</g>
<g>
</g>
<g>
</g>
<g>
</g>
<g>
</g>
<g>
</g>
<g>
</g>
<g>
</g>
<g>
</g>
<g>
</g>
<g>
</g>
<g>
</g>
<g>
</g>
<g>
</g>
<g>
</g>
<g>
</g>
</svg>
