<svg version="1.1" xmlns="http://www.w3.org/2000/svg" width="1024" height="1024" viewBox="0 0 1024 1024">
<path d="M1024 396.56c0-65.21-25.39-126.504-71.492-172.586l-152.48-152.5c-46.090-46.090-107.384-71.474-172.588-71.474h-353.4c-52.24 0-94.74 42.51-94.74 94.76v536.026l0.134 19.038c-17.026 0.69-33.754 3.66-49.834 8.866-7.882 2.552-12.202 11.008-9.65 18.89 2.55 7.88 11.006 12.202 18.89 9.65 15.516-5.024 31.774-7.57 48.32-7.57 86.668 0 157.18 70.51 157.18 157.18 0 86.658-70.51 157.16-157.18 157.16-86.658 0-157.16-70.502-157.16-157.16 0-46.138 20.166-89.776 55.326-119.72 6.308-5.372 7.066-14.838 1.694-21.146-5.372-6.31-14.84-7.066-21.146-1.694-41.864 35.654-65.874 87.616-65.874 142.56 0 103.2 83.96 187.16 187.16 187.16 16.674 0 32.842-2.204 48.238-6.312 0 0 16.942 6.312 38.652 6.312s655.2 0 655.2 0c52.24 0 94.74-42.508 94.74-94.76zM374.34 836.84c0-65.726-34.058-123.642-85.448-157.046 84.222 2.796 151.888 72.146 151.888 157.046 0 84.888-67.664 154.228-151.884 157.026 51.388-33.4 85.444-91.308 85.444-157.026zM929.25 994h-544.106c51.496-33.38 85.638-91.356 85.638-157.16 0-103.21-83.96-187.18-187.16-187.18-16.392 0-32.598 2.138-48.252 6.306-8.424-2.248-17.080-3.92-25.924-4.974l-0.144-20.312v-535.92c0-35.708 29.042-64.76 64.74-64.76h319.68c62.65 0 113.62 50.97 113.62 113.62v78.28c0 37.17 21.888 71.072 55.766 86.37 7.56 3.416 16.438 0.052 19.844-7.496 3.41-7.55 0.054-16.436-7.496-19.844-23.152-10.456-38.114-33.626-38.114-59.030v-78.28c0-40.35-16.73-76.872-43.614-102.986 31.838 10.41 61.216 28.182 85.086 52.052l152.484 152.502c24.368 24.358 42.136 53.558 52.412 85.438-26.136-27.092-62.798-43.968-103.328-43.968h-44.74c-8.286 0-15 6.716-15 15s6.714 15 15 15h44.74c62.522 0 113.4 50.762 113.61 113.236v499.346c-0.002 35.71-29.044 64.76-64.742 64.76z"></path>
<path d="M874.344 361.54h-545.378c-8.284 0-15 6.716-15 15s6.716 15 15 15h545.376c8.286 0 15-6.716 15-15s-6.714-15-14.998-15z"></path>
<path d="M874.344 441.33h-545.378c-8.284 0-15 6.716-15 15s6.716 15 15 15h545.376c8.286 0 15-6.716 15-15s-6.714-15-14.998-15z"></path>
<path d="M874.344 521.12h-545.378c-8.284 0-15 6.716-15 15s6.716 15 15 15h545.376c8.286 0 15-6.716 15-15s-6.714-15-14.998-15z"></path>
<path d="M529.308 600.91h-200.342c-8.284 0-15 6.716-15 15s6.716 15 15 15h200.342c8.286 0 15-6.716 15-15s-6.714-15-15-15z"></path>
<path d="M328.966 239.692h200.342c8.286 0 15-6.716 15-15s-6.714-15-15-15h-200.342c-8.284 0-15 6.716-15 15s6.716 15 15 15z"></path>
<path d="M817.548 741.924c-4.354-1.54-8.812-3.154-13.254-4.836v-70.932c11.178 2.676 17.834 8.33 18.412 8.834 6.094 5.52 15.512 5.104 21.092-0.95 5.618-6.090 5.234-15.58-0.856-21.196-0.854-0.786-15.184-13.7-38.648-17.22v-14.486c0-8.284-6.714-15-15-15s-15 6.716-15 15v15.638c-2.226 0.49-4.486 1.054-6.794 1.75-21.458 6.464-37.49 24.828-41.844 47.924-3.968 21.060 2.78 41.368 17.608 52.998 7.858 6.162 17.636 11.808 31.032 17.77v89.942c-11.586-0.854-19.616-3.684-32.768-12.288-6.934-4.536-16.226-2.59-20.764 4.34-4.536 6.932-2.592 16.23 4.342 20.764 19.176 12.544 32.276 16.286 49.19 17.236v16.222c0 8.284 6.714 15 15 15s15-6.716 15-15v-17.414c33.654-6.602 53.312-34.352 57.668-60.274 5.602-33.328-11.834-62.304-44.416-73.822zM761.78 715.842c-5.982-4.692-8.528-13.826-6.64-23.836 1.69-8.97 7.612-19.75 19.156-24.108v55.944c-4.712-2.556-8.972-5.22-12.516-8zM832.378 810.772c-2.308 13.732-11.872 28.288-28.084 34.088v-75.816c1.082 0.388 2.142 0.772 3.256 1.166 27.718 9.796 26.012 33.524 24.828 40.562z"></path>
<path d="M90.338 858.184c3.568 17.064 8.496 26.662 16.566 36.202l-6.938 6.938c-5.858 5.858-5.858 15.356 0 21.212 2.928 2.928 6.768 4.394 10.606 4.394s7.678-1.464 10.606-4.394l7.948-7.948c9.836 5.91 20.508 8.522 30.886 8.522 13.356 0 26.222-4.302 36.166-11.386 23.010-16.386 29.842-43.796 17.408-69.83-1.252-2.62-2.514-5.304-3.754-8.012l34.908-34.908c2.37 5.072 2.874 9.162 2.952 10.022 0.748 8.252 8.054 14.34 16.292 13.584 8.25-0.748 14.334-8.042 13.584-16.292-0.32-3.532-2.052-16.198-10.88-29.264l6.18-6.18c5.858-5.858 5.858-15.356 0-21.212-5.858-5.858-15.356-5.858-21.212 0l-6.922 6.922c-0.906-0.536-1.836-1.062-2.792-1.576-16.606-8.918-37.030-7.552-53.306 3.562-14.928 10.194-23.006 26.418-21.082 42.344 0.918 7.598 3.054 15.852 6.838 26.010l-46.146 46.146c-4.362-5.728-6.492-11.196-8.542-21-1.694-8.11-9.646-13.302-17.752-11.614-8.11 1.702-13.308 9.65-11.614 17.758zM178.778 887.29c-7.062 5.028-17.22 7.608-27.076 4.728l35.552-35.552c7.256 17.15-3.42 27.222-8.476 30.824zM197.336 797.288c-0.566-4.69 2.658-10.172 8.216-13.968 4.156-2.838 10.172-4.934 16.328-3.91l-23.526 23.526c-0.446-1.96-0.8-3.856-1.018-5.648z"></path>
</svg>
