<svg version="1.1" xmlns="http://www.w3.org/2000/svg" width="1024" height="1024" viewBox="0 0 1024 1024">
<path d="M250.156 219.736l-128.355-127.929c-8.229-8.273-21.834-8.315-30.149 0.042s-8.315 21.834 0.042 30.149l128.355 127.929c4.136 4.136 9.595 6.227 15.054 6.227s10.96-2.089 15.138-6.269c8.273-8.359 8.273-21.834-0.084-30.149z"></path>
<path d="M192.032 298.796h-170.572c-11.769 0-21.322 9.553-21.322 21.322s9.553 21.322 21.322 21.322h170.572c11.769 0 21.322-9.553 21.322-21.322s-9.553-21.322-21.322-21.322z"></path>
<path d="M320.389 0.295c-11.769 0-21.322 9.553-21.322 21.322v170.572c0 11.769 9.553 21.322 21.322 21.322s21.322-9.553 21.322-21.322v-170.574c-0.002-11.769-9.553-21.32-21.322-21.32z"></path>
<path d="M932.403 859.382l-128.355-127.929c-8.229-8.273-21.834-8.315-30.149 0.042-8.273 8.357-8.273 21.834 0.086 30.149l128.355 127.929c4.136 4.136 9.595 6.227 15.054 6.227s10.96-2.089 15.096-6.269c8.271-8.359 8.271-21.834-0.086-30.149z"></path>
<path d="M1002.678 639.941h-170.572c-11.769 0-21.322 9.553-21.322 21.322s9.553 21.322 21.322 21.322h170.572c11.769 0 21.322-9.553 21.322-21.322s-9.553-21.322-21.322-21.322z"></path>
<path d="M703.749 767.871c-11.769 0-21.322 9.553-21.322 21.322v170.572c0 11.769 9.553 21.322 21.322 21.322s21.322-9.553 21.322-21.322v-170.572c0-11.771-9.553-21.322-21.322-21.322z"></path>
<path d="M967.539 56.284c-74.797-74.797-196.541-74.797-271.338 0l-186.095 186.095c-8.315 8.315-8.315 21.834 0 30.149s21.834 8.315 30.149 0l186.095-186.095c58.208-58.166 152.834-58.166 211.041 0 58.166 58.208 58.166 152.876 0 211.083l-271.338 271.38c-58.166 58.166-152.834 58.25-211.083 0-8.315-8.315-21.834-8.315-30.149 0s-8.315 21.834 0 30.149c37.397 37.441 86.566 56.119 135.691 56.119 49.167 0 98.292-18.72 135.691-56.119l271.338-271.38c74.837-74.797 74.837-196.585-0.002-271.382z"></path>
<path d="M598.847 424.976c-74.881-74.881-196.669-74.797-271.38 0l-271.338 271.382c-74.839 74.797-74.839 196.585 0 271.38 37.397 37.397 86.566 56.075 135.691 56.075 49.167 0 98.292-18.678 135.691-56.075l186.095-186.095c8.315-8.315 8.315-21.834 0-30.149s-21.834-8.315-30.149 0l-186.095 186.095c-58.208 58.166-152.834 58.166-211.041 0-58.166-58.208-58.166-152.876 0-211.083l271.296-271.38c58.208-58.122 152.876-58.166 211.083 0 8.315 8.315 21.834 8.315 30.149 0s8.313-21.834-0.002-30.149z"></path>
</svg>
