<svg version="1.1" xmlns="http://www.w3.org/2000/svg" width="1024" height="1024" viewBox="0 0 1024 1024">
<path d="M889.828 219.523l-213.378-213.378c-4.001-4.001-9.418-6.251-15.087-6.251h-448.093c-47.050 0-85.35 38.278-85.35 85.352v853.511c0 47.072 38.3 85.35 85.352 85.35h597.458c47.050 0 85.35-38.278 85.35-85.352v-704.146c0-5.667-2.25-11.084-6.251-15.085zM682.701 72.743l140.529 140.529h-97.854c-23.547 0-42.675-19.15-42.675-42.675v-97.854zM853.405 938.754c0 23.525-19.13 42.675-42.675 42.675h-597.458c-23.547 0-42.675-19.15-42.675-42.675v-853.509c0-23.525 19.13-42.675 42.675-42.675h426.754v128.027c0 47.072 38.3 85.35 85.352 85.35h128.027v682.808z"></path>
<path d="M746.715 597.352h-469.429c-11.794 0-21.338 9.544-21.338 21.338s9.544 21.338 21.338 21.338h469.431c11.794 0 21.338-9.544 21.338-21.338-0.002-11.794-9.546-21.338-21.34-21.338z"></path>
<path d="M746.715 469.325h-469.429c-11.794 0-21.338 9.544-21.338 21.338s9.544 21.338 21.338 21.338h469.431c11.794 0 21.338-9.544 21.338-21.338-0.002-11.794-9.546-21.338-21.34-21.338z"></path>
<path d="M746.715 725.378h-469.429c-11.794 0-21.338 9.544-21.338 21.338s9.544 21.338 21.338 21.338h469.431c11.794 0 21.338-9.544 21.338-21.338-0.002-11.794-9.546-21.338-21.34-21.338z"></path>
<path d="M533.338 853.405h-256.053c-11.794 0-21.338 9.544-21.338 21.338s9.544 21.338 21.338 21.338h256.053c11.794 0 21.338-9.544 21.338-21.338-0.002-11.794-9.544-21.338-21.338-21.338z"></path>
<path d="M469.325 362.635c0 11.794 9.544 21.338 21.338 21.338h256.053c11.794 0 21.338-9.544 21.338-21.338s-9.544-21.338-21.338-21.338h-256.053c-11.794 0.002-21.338 9.546-21.338 21.338z"></path>
<path d="M319.96 341.299h-42.675c-11.794 0-21.338 9.544-21.338 21.338s9.544 21.338 21.338 21.338h21.338c0 11.794 9.544 21.338 21.338 21.338s21.338-9.544 21.338-21.338v-3.931c24.781-8.84 42.673-32.303 42.673-60.084 0-35.299-28.714-64.013-64.013-64.013-11.752 0-21.338-9.564-21.338-21.338 0-11.772 9.586-21.338 21.338-21.338h42.675c11.794 0 21.338-9.544 21.338-21.338s-9.544-21.338-21.338-21.338h-21.338c0-11.794-9.544-21.338-21.338-21.338s-21.338 9.544-21.338 21.338v3.931c-24.781 8.84-42.673 32.303-42.673 60.084 0 35.299 28.714 64.013 64.013 64.013 11.752 0 21.338 9.564 21.338 21.338s-9.586 21.338-21.338 21.338z"></path>
</svg>
