<svg version="1.1" xmlns="http://www.w3.org/2000/svg" width="1024" height="1024" viewBox="0 0 1024 1024">
<path d="M260.847 232.65h736.716c14.604 0 26.437-11.837 26.437-26.437s-11.833-26.437-26.437-26.437h-736.716c-14.6 0-26.437 11.837-26.437 26.437s11.837 26.437 26.437 26.437z"></path>
<path d="M997.563 486.443h-736.716c-14.6 0-26.437 11.837-26.437 26.437s11.837 26.437 26.437 26.437h736.716c14.604 0 26.437-11.837 26.437-26.437s-11.833-26.437-26.437-26.437z"></path>
<path d="M997.563 793.111h-736.716c-14.6 0-26.437 11.837-26.437 26.437s11.837 26.437 26.437 26.437h736.716c14.604 0 26.437-11.837 26.437-26.437s-11.833-26.437-26.437-26.437z"></path>
<path d="M91.649 114.564c-50.534 0-91.649 41.115-91.649 91.649s41.115 91.649 91.649 91.649c50.534 0 91.649-41.115 91.649-91.649s-41.115-91.649-91.649-91.649zM91.649 244.987c-21.414 0-38.775-17.36-38.775-38.775s17.36-38.775 38.775-38.775c21.414 0 38.775 17.36 38.775 38.775s-17.36 38.775-38.775 38.775z"></path>
<path d="M91.649 421.231c-50.534 0-91.649 41.115-91.649 91.649s41.115 91.649 91.649 91.649c50.534 0 91.649-41.115 91.649-91.649s-41.115-91.649-91.649-91.649zM91.649 551.655c-21.414 0-38.775-17.36-38.775-38.775s17.36-38.775 38.775-38.775c21.414 0 38.775 17.36 38.775 38.775s-17.36 38.775-38.775 38.775z"></path>
<path d="M91.649 726.137c-50.534 0-91.649 41.115-91.649 91.649s41.115 91.649 91.649 91.649c50.534 0 91.649-41.115 91.649-91.649s-41.115-91.649-91.649-91.649zM91.649 856.56c-21.414 0-38.775-17.36-38.775-38.775s17.36-38.775 38.775-38.775c21.414 0 38.775 17.36 38.775 38.775s-17.36 38.775-38.775 38.775z"></path>
</svg>
