<svg version="1.1" xmlns="http://www.w3.org/2000/svg" width="1024" height="1024" viewBox="0 0 1024 1024">
<path d="M418.564 342.646h584.461c11.583 0 20.974-9.391 20.974-20.974s-9.391-20.974-20.974-20.974h-584.461c-11.583 0-20.974 9.391-20.974 20.974s9.391 20.974 20.974 20.974z"></path>
<path d="M1003.026 543.992h-584.461c-11.583 0-20.974 9.391-20.974 20.974s9.391 20.974 20.974 20.974h584.461c11.583 0 20.974-9.391 20.974-20.974s-9.391-20.974-20.974-20.974z"></path>
<path d="M1003.026 787.282h-584.461c-11.583 0-20.974 9.391-20.974 20.974s9.391 20.974 20.974 20.974h584.461c11.583 0 20.974-9.391 20.974-20.974s-9.391-20.974-20.974-20.974z"></path>
<path d="M304.292 236.346c11.583 0 20.974-9.391 20.974-20.974s-9.391-20.974-20.974-20.974h-56.805c-11.583 0-20.974 9.391-20.974 20.974s9.391 20.974 20.974 20.974h7.427v63.653h-7.427c-11.583 0-20.974 9.391-20.974 20.974s9.391 20.974 20.974 20.974h56.805c11.583 0 20.974-9.391 20.974-20.974s-9.391-20.974-20.974-20.974h-7.43v-63.653h7.43z"></path>
<path d="M376.268 320.973c0 8.301-6.73 15.031-15.031 15.031s-15.031-6.73-15.031-15.031c0-8.301 6.73-15.031 15.031-15.031s15.031 6.73 15.031 15.031z"></path>
<path d="M304.292 481.037c11.583 0 20.974-9.391 20.974-20.974s-9.391-20.974-20.974-20.974h-56.805c-11.583 0-20.974 9.391-20.974 20.974s9.391 20.974 20.974 20.974h7.427v63.653h-7.427c-11.583 0-20.974 9.391-20.974 20.974s9.391 20.974 20.974 20.974h56.805c11.583 0 20.974-9.391 20.974-20.974s-9.391-20.974-20.974-20.974h-7.43v-63.653h7.43z"></path>
<path d="M191.035 481.037c11.583 0 20.974-9.391 20.974-20.974s-9.391-20.974-20.974-20.974h-56.805c-11.583 0-20.974 9.391-20.974 20.974s9.391 20.974 20.974 20.974h7.427v63.653h-7.427c-11.583 0-20.974 9.391-20.974 20.974s9.391 20.974 20.974 20.974h56.805c11.583 0 20.974-9.391 20.974-20.974s-9.391-20.974-20.974-20.974h-7.43v-63.653h7.43z"></path>
<path d="M376.268 565.488c0 8.301-6.73 15.031-15.031 15.031s-15.031-6.73-15.031-15.031c0-8.301 6.73-15.031 15.031-15.031s15.031 6.73 15.031 15.031z"></path>
<path d="M304.292 724c11.583 0 20.974-9.391 20.974-20.974s-9.391-20.974-20.974-20.974h-56.805c-11.583 0-20.974 9.391-20.974 20.974s9.391 20.974 20.974 20.974h7.427v63.653h-7.427c-11.583 0-20.974 9.391-20.974 20.974s9.391 20.974 20.974 20.974h56.805c11.583 0 20.974-9.391 20.974-20.974s-9.391-20.974-20.974-20.974h-7.43v-63.653h7.43z"></path>
<path d="M191.035 724c11.583 0 20.974-9.391 20.974-20.974s-9.391-20.974-20.974-20.974h-56.805c-11.583 0-20.974 9.391-20.974 20.974s9.391 20.974 20.974 20.974h7.427v63.653h-7.427c-11.583 0-20.974 9.391-20.974 20.974s9.391 20.974 20.974 20.974h56.805c11.583 0 20.974-9.391 20.974-20.974s-9.391-20.974-20.974-20.974h-7.43v-63.653h7.43z"></path>
<path d="M77.778 724c11.583 0 20.974-9.391 20.974-20.974s-9.391-20.974-20.974-20.974h-56.805c-11.583 0-20.974 9.391-20.974 20.974s9.391 20.974 20.974 20.974h7.427v63.653h-7.427c-11.583 0-20.974 9.391-20.974 20.974s9.391 20.974 20.974 20.974h56.805c11.583 0 20.974-9.391 20.974-20.974s-9.391-20.974-20.974-20.974h-7.43v-63.653h7.43z"></path>
<path d="M376.268 808.451c0 8.301-6.73 15.031-15.031 15.031s-15.031-6.73-15.031-15.031c0-8.301 6.73-15.031 15.031-15.031s15.031 6.73 15.031 15.031z"></path>
</svg>
