<svg version="1.1" xmlns="http://www.w3.org/2000/svg" width="1024" height="1024" viewBox="0 0 1024 1024">
<path d="M661.334 768c-11.792 0-21.334 9.542-21.334 21.334v149.334c0 23.52-19.146 42.666-42.666 42.666h-512c-23.52 0-42.666-19.146-42.666-42.666v-853.334c0-23.52 19.146-42.666 42.666-42.666h512c23.52 0 42.666 19.146 42.666 42.666v149.334c0 11.792 9.542 21.334 21.334 21.334s21.334-9.542 21.334-21.334v-149.334c-0.002-47.064-38.272-85.334-85.334-85.334h-512c-47.064 0-85.334 38.27-85.334 85.334v853.334c0 47.062 38.27 85.332 85.334 85.332h512c47.062 0 85.334-38.27 85.334-85.334v-149.334c-0.002-11.79-9.542-21.332-21.334-21.332z"></path>
<path d="M1017.084 496.27l-256-234.666c-8.73-7.958-22.166-7.354-30.146 1.312-7.958 8.688-7.376 22.188 1.312 30.146l215.58 197.604h-670.496c-11.792 0-21.334 9.542-21.334 21.334s9.542 21.334 21.334 21.334h670.498l-215.58 197.604c-8.688 7.958-9.27 21.458-1.312 30.146 4.208 4.584 9.958 6.916 15.73 6.916 5.146 0 10.312-1.854 14.416-5.604l256-234.666c4.414-4.042 6.914-9.75 6.914-15.73s-2.5-11.688-6.916-15.73z"></path>
</svg>
