<svg version="1.1" xmlns="http://www.w3.org/2000/svg" width="1024" height="1024" viewBox="0 0 1024 1024">
<path d="M938.666 128h-853.332c-47.064 0-85.334 38.27-85.334 85.334v597.334c0 47.062 38.27 85.332 85.334 85.332h853.334c47.062 0 85.332-38.27 85.332-85.334v-597.332c0-47.064-38.27-85.334-85.334-85.334zM85.334 170.666h853.334c3.144 0 5.914 1.146 8.864 1.794-73.878 67.614-318.846 291.718-404.572 368.956-6.708 6.042-17.52 13.25-30.958 13.25s-24.25-7.208-30.98-13.27c-85.718-77.226-330.7-301.342-404.566-368.932 2.956-0.648 5.732-1.798 8.878-1.798zM42.666 810.666v-597.332c0-4.18 1.26-7.972 2.388-11.792 56.544 51.752 227.472 208.12 338.304 308.906-110.472 94.894-281.444 256.99-338.438 311.338-1.006-3.628-2.254-7.176-2.254-11.12zM938.666 853.334h-853.332c-3.408 0-6.438-1.188-9.62-1.948 58.894-56.144 230.954-219.172 339.484-312.018 14.148 12.834 27.072 24.536 37.26 33.716 17.584 15.876 38.166 24.25 59.542 24.25s41.958-8.376 59.52-24.23c10.192-9.184 23.126-20.896 37.282-33.736 108.536 92.836 280.572 255.852 339.484 312.018-3.182 0.76-6.208 1.948-9.62 1.948zM981.334 810.666c0 3.942-1.248 7.492-2.252 11.12-57.016-54.376-227.968-216.454-338.438-311.336 110.836-100.786 281.738-257.14 338.302-308.912 1.128 3.82 2.388 7.614 2.388 11.794v597.334z"></path>
</svg>
