<svg version="1.1" xmlns="http://www.w3.org/2000/svg" width="1024" height="1024" viewBox="0 0 1024 1024">
<path d="M21.376 190.312c140.54 119.022 387.144 328.418 459.624 393.708 9.73 8.812 20.166 13.292 31 13.292 10.812 0 21.23-4.438 30.938-13.208 72.542-65.354 319.146-274.77 459.688-393.792 8.75-7.396 10.084-20.396 3-29.438-16.376-20.894-40.792-32.874-66.96-32.874h-853.332c-26.166 0-50.584 11.98-66.958 32.876-7.084 9.040-5.75 22.040 3 29.436z"></path>
<path d="M1011.626 254.812c-7.562-3.52-16.458-2.292-22.75 3.084-155.856 132.124-354.772 301.48-417.356 357.874-35.126 31.708-83.876 31.708-119.084-0.042-66.708-60.104-290.084-250-417.312-357.834-6.334-5.376-15.25-6.562-22.75-3.084-7.54 3.502-12.374 11.044-12.374 19.356v536.5c0 47.064 38.27 85.334 85.334 85.334h853.334c47.062 0 85.332-38.27 85.332-85.334v-536.5c0-8.312-4.834-15.874-12.374-19.354z"></path>
</svg>
