<svg version="1.1" xmlns="http://www.w3.org/2000/svg" width="1024" height="1024" viewBox="0 0 1024 1024">
<path d="M512-0.106c-204.533 0-370.931 166.399-370.931 370.929 0 253.829 331.947 626.465 346.080 642.204 13.275 14.785 36.452 14.759 49.702 0 14.133-15.739 346.080-388.375 346.080-642.204-0.004-204.531-166.401-370.929-370.931-370.929zM512 939.548c-111.717-132.704-304.133-394.516-304.133-568.721 0-167.703 136.432-304.135 304.133-304.135s304.133 136.432 304.133 304.133c-0.002 174.212-192.388 435.977-304.133 568.723z"></path>
<path d="M512 184.201c-102.905 0-186.623 83.719-186.623 186.625s83.719 186.625 186.623 186.625 186.621-83.719 186.621-186.625-83.717-186.625-186.621-186.625zM512 490.653c-66.074 0-119.825-53.753-119.825-119.827s53.753-119.827 119.825-119.827 119.825 53.753 119.825 119.827-53.753 119.827-119.825 119.827z"></path>
</svg>
