<svg version="1.1" xmlns="http://www.w3.org/2000/svg" width="1024" height="1024" viewBox="0 0 1024 1024">
<path fill="#000" d="M657.553 128.23c0-18.963-15.195-31.348-33.768-27.517l-223.57 46.080c-18.573 3.827-33.768 22.476-33.768 41.439v709.295c0 18.963 15.177 31.258 33.726 27.324l223.649-47.442c18.549-3.937 33.726-22.669 33.726-41.632v-707.547z"></path>
<path fill="#000" d="M26.775 863.28l258.169 60.816c18.46 4.348 33.558-7.609 33.558-26.572v-709.295c0-18.963-15.122-37.957-33.599-42.208l-243.181-55.937c-10.133-2.272-20.77 0.193-28.886 6.692-8.113 6.503-12.836 16.336-12.836 26.731v706.354c0 16.036 11.126 29.924 26.776 33.42z"></path>
<path fill="#000" d="M982.278 933.919c2.479 0.555 4.982 0.824 7.475 0.824 7.706 0 15.281-2.603 21.411-7.516 8.113-6.503 12.836-16.336 12.836-26.731v-706.354c0-16.036-11.13-29.924-26.776-33.42l-258.124-59.254c-18.48-4.241-33.602 7.802-33.602 26.765v707.544c0 18.963 15.122 37.957 33.599 42.208l243.181 55.934z"></path>
</svg>
