<!-- Generated by IcoMoon.io -->
<svg version="1.1" xmlns="http://www.w3.org/2000/svg" width="1024" height="1024" viewBox="0 0 1024 1024">
<title></title>
<g id="icomoon-ignore">
</g>
<path fill="#000" d="M694.713 182.652c-67.543 0-130.398 20.449-182.713 55.455-52.322-35.006-115.169-55.455-182.713-55.455-181.619 0-329.379 147.746-329.379 329.348s147.761 329.348 329.379 329.348c67.543 0 130.398-20.449 182.713-55.455 52.322 35.006 115.169 55.455 182.713 55.455 181.619 0 329.379-147.746 329.379-329.348s-147.761-329.348-329.379-329.348zM694.713 781.337c-98.081 0-184.080-52.697-231.182-131.251h34.615c16.573 0 30.005-13.432 30.005-30.005 0-16.566-13.432-30.005-30.005-30.005h-61.245c-3.704-12.205-6.571-24.762-8.525-37.632h117.787c16.566 0 30.005-13.432 30.005-30.005 0-16.566-13.44-30.005-30.005-30.005h-120.108c0.922-12.807 2.758-25.372 5.423-37.624h66.668c16.573 0 30.005-13.44 30.005-30.005 0-16.573-13.432-30.005-30.005-30.005h-45.93c43.664-89.961 135.954-152.136 242.497-152.136 148.527 0 269.368 120.827 269.368 269.337s-120.842 269.337-269.368 269.337z"></path>
</svg>
