<svg version="1.1" xmlns="http://www.w3.org/2000/svg" width="1024" height="1024" viewBox="0 0 1024 1024">
<path d="M639.999 512c0 70.693-57.308 127.999-127.999 127.999s-127.999-57.308-127.999-127.999c0-70.693 57.308-127.999 127.999-127.999s127.999 57.308 127.999 127.999z"></path>
<path d="M1024 512c0 70.693-57.308 127.999-127.999 127.999s-127.999-57.308-127.999-127.999c0-70.693 57.308-127.999 127.999-127.999s127.999 57.308 127.999 127.999z"></path>
<path d="M255.998 512c0 70.693-57.308 127.999-127.999 127.999s-127.999-57.308-127.999-127.999c0-70.693 57.308-127.999 127.999-127.999s127.999 57.308 127.999 127.999z"></path>
</svg>
