<?xml version="1.0" encoding="iso-8859-1"?>
<!-- Generator: Adobe Illustrator 19.0.0, SVG Export Plug-In . SVG Version: 6.00 Build 0)  -->
<svg version="1.1" id="Capa_1" xmlns="http://www.w3.org/2000/svg" xmlns:xlink="http://www.w3.org/1999/xlink" x="0px" y="0px"
	 viewBox="0 0 512 512" style="enable-background:new 0 0 512 512;" xml:space="preserve">
<g>
	<g>
		<path d="M118.016,307.168v-1.088C114.144,290.208,112,273.408,112,256c0-17.408,2.144-34.208,6.016-50.08v-1.088
			C141.632,103.36,233.824,25.696,346.656,16.896C318.4,6.144,287.936,0,256,0C114.848,0,0,114.848,0,256s114.848,256,256,256
			c31.936,0,62.4-6.144,90.624-16.896C233.824,486.336,141.632,408.64,118.016,307.168z"/>
	</g>
</g>
<g>
	<g>
		<path d="M409.696,51.744C396.16,49.376,382.24,48,368,48c-44.032,0-84.992,12.032-119.68,32.48c2.56-0.16,5.088-0.48,7.68-0.48
			c79.52,0,144,78.784,144,176s-64.48,176-144,176c-2.592,0-5.12-0.32-7.68-0.48C282.976,451.968,323.968,464,368,464
			c14.24,0,28.16-1.376,41.696-3.744C471.68,413.472,512,339.456,512,256S471.68,98.528,409.696,51.744z"/>
	</g>
</g>
<g>
</g>
<g>
</g>
<g>
</g>
<g>
</g>
<g>
</g>
<g>
</g>
<g>
</g>
<g>
</g>
<g>
</g>
<g>
</g>
<g>
</g>
<g>
</g>
<g>
</g>
<g>
</g>
<g>
</g>
</svg>
