<svg version="1.1" xmlns="http://www.w3.org/2000/svg" width="1024" height="1024" viewBox="0 0 1024 1024">
<path d="M682.666 0c-188.208 0-341.334 153.126-341.334 341.334 0 22.416 2.438 45.416 7.25 68.52l-38.126 19.062c-6.126 3.062-10.416 8.896-11.52 15.666s1.126 13.646 5.98 18.5l27.584 27.584-21.334 21.334h-33.834c-11.792 0-21.334 9.542-21.334 21.334v33.834l-30.166 30.166h-33.832c-11.792 0-21.334 9.542-21.334 21.334v33.834l-30.166 30.164h-33.834c-11.792 0-21.334 9.542-21.334 21.334v33.834l-79.082 79.082c-4 4-6.25 9.416-6.25 15.084v170.666c0 11.792 9.542 21.334 21.334 21.334h170.666c5.666 0 11.084-2.25 15.084-6.25l326.25-326.25 27.584 27.584c4.834 4.854 11.73 7.126 18.5 5.98 6.77-1.104 12.604-5.396 15.666-11.52l19.062-38.126c217.062 45.248 409.854-123.46 409.854-334.084 0-188.208-153.124-341.334-341.334-341.334zM607.896 630.166c-9.666-2.458-19.896 2.126-24.396 11.126l-13.354 26.688-21.73-21.73c-8.334-8.334-21.834-8.334-30.166 0l-335.084 335.084h-140.5v-140.5l79.084-79.084c4-4 6.25-9.416 6.25-15.084v-21.334h21.334c5.666 0 11.084-2.25 15.084-6.25l42.666-42.666c4-4 6.25-9.416 6.25-15.084v-21.332h21.334c5.666 0 11.084-2.25 15.084-6.25l42.666-42.666c4-4 6.25-9.416 6.25-15.084v-21.334h21.332c5.666 0 11.084-2.25 15.084-6.25l42.666-42.666c8.334-8.334 8.334-21.834 0-30.166l-21.73-21.73 26.688-13.354c9-4.5 13.626-14.666 11.126-24.396-6.52-25.334-9.834-50.48-9.834-74.77 0-164.688 133.98-298.666 298.666-298.666s298.666 133.98 298.666 298.666c0.002 188.978-176.352 339.582-373.436 288.832z"></path>
<path d="M789.334 128c-58.812 0-106.666 47.854-106.666 106.666s47.854 106.666 106.666 106.666 106.666-47.852 106.666-106.666-47.854-106.666-106.666-106.666zM789.334 298.666c-35.292 0-64-28.708-64-64s28.708-64 64-64 64 28.708 64 64c0 35.292-28.708 64-64 64z"></path>
<path d="M432.916 560.916l-298.666 298.668c-8.334 8.334-8.334 21.834 0 30.166 4.166 4.166 9.626 6.25 15.084 6.25s10.916-2.084 15.084-6.25l298.666-298.666c8.334-8.334 8.334-21.834 0-30.166-8.334-8.334-21.834-8.334-30.168-0.002z"></path>
</svg>
