<svg version="1.1" xmlns="http://www.w3.org/2000/svg" width="1024" height="1024" viewBox="0 0 1024 1024">
<path d="M997.129 789.96l-207.261-138.219c-26.302-17.399-61.559-11.674-81.004 13.156l-60.373 77.624c-7.759 10.23-21.863 13.198-33.087 6.963l-11.484-6.331c-38.070-20.751-85.439-46.585-180.879-142.059s-121.326-142.879-142.077-180.879l-6.297-11.484c-6.321-11.222-3.409-25.386 6.825-33.207l77.572-60.355c24.82-19.447 30.553-54.694 13.174-81.004l-138.219-207.261c-17.811-26.792-53.546-34.835-81.12-18.259l-86.669 52.062c-27.232 16.010-47.211 41.938-55.748 72.351-31.209 113.715-7.731 309.97 281.37 599.106 229.974 229.956 401.178 291.797 518.854 291.797 27.082 0.116 54.058-3.407 80.202-10.476 30.419-8.527 56.352-28.508 72.351-55.748l52.114-86.617c16.6-27.58 8.561-63.337-18.243-81.158zM985.969 853.608l-51.994 86.669c-11.488 19.661-30.14 34.117-52.046 40.34-104.978 28.822-288.383 4.949-565.933-272.6s-301.419-460.939-272.598-565.933c6.231-21.933 20.705-40.608 40.39-52.114l86.669-51.994c11.964-7.199 27.474-3.709 35.203 7.917l138.102 207.243c7.547 11.412 5.067 26.708-5.699 35.153l-77.59 60.355c-23.612 18.055-30.355 50.724-15.818 76.653l6.161 11.194c21.809 39.998 48.923 89.757 147.912 188.73 98.989 98.971 148.732 126.087 188.712 147.894l11.21 6.177c25.926 14.536 58.597 7.795 76.653-15.818l60.355-77.59c8.447-10.76 23.736-13.238 35.153-5.699l207.243 138.219c11.634 7.723 15.124 23.241 7.915 35.203z"></path>
<path d="M580.234 170.754c160.138 0.178 289.911 129.953 290.091 290.091 0 9.425 7.639 17.063 17.063 17.063s17.063-7.639 17.063-17.063c-0.198-178.979-145.238-324.022-324.218-324.218-9.425 0-17.063 7.639-17.063 17.063s7.639 17.063 17.063 17.063z"></path>
<path d="M580.234 273.138c103.617 0.122 187.584 84.090 187.706 187.706 0 9.425 7.641 17.063 17.063 17.063 9.425 0 17.063-7.639 17.063-17.063-0.142-122.458-99.377-221.693-221.833-221.833-9.425 0-17.063 7.639-17.063 17.063s7.639 17.063 17.063 17.063z"></path>
<path d="M580.234 375.523c47.097 0.056 85.263 38.222 85.321 85.321 0 9.425 7.641 17.063 17.063 17.063s17.063-7.639 17.063-17.063c-0.076-65.938-53.51-119.374-119.448-119.448-9.425 0-17.063 7.639-17.063 17.063s7.639 17.063 17.063 17.063z"></path>
</svg>
