<svg version="1.1" xmlns="http://www.w3.org/2000/svg" width="1024" height="1024" viewBox="0 0 1024 1024">
<path d="M943.158 674.223c-63.166 0-125.035-9.863-183.673-29.212-28.618-9.863-61.117-2.264-79.925 16.924l-116.251 87.795c-133.39-71.194-218.759-156.51-288.983-288.93l85.422-113.502c21.504-21.504 29.212-52.979 19.996-82.459-19.511-59.015-29.427-120.94-29.427-183.997 0-44.572-36.27-80.842-80.842-80.842h-188.633c-44.572 0-80.842 36.27-80.842 80.842 0 520.030 423.128 943.158 943.158 943.158 44.572 0 80.842-36.27 80.842-80.842v-188.092c0-44.572-36.27-80.842-80.842-80.842z"></path>
</svg>
