<svg version="1.1" xmlns="http://www.w3.org/2000/svg" width="1024" height="1024" viewBox="0 0 1024 1024">
<path d="M39.986 244.797c26.67-26.665 58.84-40.001 96.532-40.001h119.468l27.195-72.529c6.758-17.42 19.109-32.445 37.073-45.072 17.958-12.623 36.356-18.938 55.203-18.938h273.073c18.845 0 37.247 6.316 55.205 18.938 17.958 12.628 30.31 27.652 37.066 45.072l27.198 72.529h119.468c37.692 0 69.862 13.336 96.538 40.001 26.667 26.666 39.996 58.842 39.996 96.533v477.871c0 37.692-13.329 69.871-39.996 96.529-26.675 26.675-58.846 40.013-96.538 40.013h-750.936c-37.692 0-69.859-13.338-96.531-40.013-26.663-26.658-39.999-58.837-39.999-96.529v-477.871c-0.007-37.692 13.329-69.868 39.986-96.533zM343.196 749.072c46.756 46.758 103.018 70.142 168.801 70.142s122.041-23.385 168.8-70.142c46.759-46.749 70.135-103.025 70.135-168.793 0-65.789-23.383-122.045-70.135-168.805s-103.020-70.134-168.8-70.134-122.045 23.38-168.801 70.134c-46.757 46.753-70.135 103.015-70.135 168.805 0 65.768 23.376 122.038 70.135 168.793z"></path>
<path d="M511.977 426.668c42.313 0 78.492 15.023 108.538 45.072 30.046 30.046 45.068 66.22 45.068 108.541 0 42.307-15.022 78.485-45.068 108.53-30.046 30.041-66.223 45.064-108.538 45.064-42.308 0-78.49-15.023-108.536-45.064-30.046-30.045-45.071-66.222-45.071-108.53 0-42.32 15.025-78.494 45.071-108.541 30.044-30.048 66.228-45.072 108.536-45.072z"></path>
</svg>
