<svg version="1.1" xmlns="http://www.w3.org/2000/svg" width="1024" height="1024" viewBox="0 0 1024 1024">
<path d="M1024 214.135v-16.576c0-45.056-36.657-81.713-81.713-81.713h-860.574c-45.056 0-81.713 36.657-81.713 81.713v628.875c0 0.006 0 0.010 0 0.017 0.006 45.052 36.661 81.703 81.713 81.703h860.574c45.056 0 81.713-36.657 81.713-81.713v-612.288c0-0.006 0-0.010 0-0.017zM81.713 146.876h860.574c27.946 0 50.683 22.735 50.683 50.683v10.101c-72.654 72.327-192.078 191.279-291.108 290.214l-155.487-155.487c-18.953-18.953-49.795-18.953-68.749 0l-446.596 446.594v-591.423c0-27.948 22.737-50.683 50.683-50.683zM942.287 877.122h-860.574c-25.898 0-47.307-19.526-50.308-44.63l468.162-468.162c6.856-6.856 18.010-6.856 24.868 0l155.478 155.478c-81.525 81.496-144.51 144.754-147.226 148.377-5.141 6.854-3.753 16.581 3.103 21.721 2.791 2.094 6.057 3.103 9.297 3.103 4.524 0 8.997-1.971 12.044-5.718 11.914-13.376 297.159-297.742 435.839-435.841v574.989c0 27.948-22.737 50.683-50.683 50.683z"></path>
<path d="M214.109 411.668c45.056 0 81.713-36.657 81.713-81.713s-36.657-81.713-81.713-81.713-81.713 36.657-81.713 81.713 36.657 81.713 81.713 81.713zM214.109 279.272c27.946 0 50.683 22.735 50.683 50.683s-22.737 50.683-50.683 50.683-50.683-22.735-50.683-50.683 22.737-50.683 50.683-50.683z"></path>
</svg>
