<svg version="1.1" xmlns="http://www.w3.org/2000/svg" width="1024" height="1024" viewBox="0 0 1024 1024">
<path d="M889.773 134.236c-90.366-90.322-172.028-134.225-249.765-134.225-5.674 0-11.094 2.262-15.062 6.272-87.124 87.124-114.344 235.813 21.334 371.49 66.943 66.943 137.043 94.248 201.382 94.248 66.005 0 125.949-28.799 170.108-72.916 3.968-4.010 6.23-9.43 6.23-15.104 0-77.736-43.861-159.441-134.227-249.765zM676.445 347.608c-118.823-118.867-90.196-236.625-27.561-304.675 62.719 3.542 133.587 44.373 210.725 121.511 77.14 77.14 117.971 147.965 121.511 210.725-68.053 62.677-185.81 91.306-304.675-27.561z"></path>
<path d="M1002.666 362.669c-46.249 0-147.795-50.047-219.557-121.767-71.764-71.72-121.767-173.308-121.767-219.557 0-11.776-9.558-21.334-21.334-21.334s-21.334 9.558-21.334 21.334c0 63.701 60.201 175.782 134.227 249.765s186.066 134.227 249.765 134.227c11.776 0 21.334-9.558 21.334-21.334s-9.558-21.334-21.334-21.334z"></path>
<path d="M804.443 432.94c-8.32-8.32-21.846-8.32-30.165 0l-170.662 170.662c-8.704 8.662-50.645 4.522-119.165-63.999s-72.66-110.504-63.999-119.165l170.662-170.662c8.32-8.32 8.32-21.846 0-30.165s-21.846-8.32-30.165 0l-170.662 170.662c-27.903 27.903-25.769 89.726 63.999 179.494 58.495 58.495 105.128 79.784 138.237 79.784 17.664 0 31.487-6.058 41.257-15.786l170.662-170.662c8.322-8.318 8.322-21.844 0.002-30.163z"></path>
<path d="M633.736 603.602c-8.32-8.32-21.846-8.32-30.165 0s-8.32 21.846 0 30.165c26.281 26.281 53.717 150.781-21.334 225.829-36.693 36.649-139.603-20.438-268.496-149.331-128.849-128.893-186.064-231.759-149.329-268.494 75.048-75.048 199.548-47.615 225.829-21.334 8.32 8.32 21.846 8.32 30.165 0s8.32-21.846 0-30.165c-45.311-45.311-197.33-67.497-286.16 21.334-74.196 74.196 40.277 219.771 149.331 328.825 84.862 84.862 191.826 172.966 270.074 172.966 22.314 0 42.325-7.21 58.751-23.637 88.83-88.828 66.687-240.805 21.334-286.158z"></path>
<path d="M358.5 755.407c-6.998-9.472-20.31-11.562-29.823-4.566l-208.168 152.659 152.659-208.166c6.998-9.472 4.95-22.826-4.566-29.823s-22.87-4.95-29.823 4.566l-234.661 319.993c-6.23 8.49-5.29 20.266 2.134 27.689 4.138 4.096 9.642 6.23 15.104 6.23 4.438 0 8.832-1.366 12.586-4.096l319.993-234.661c9.472-6.956 11.52-20.312 4.566-29.825z"></path>
</svg>
