<!-- Generated by IcoMoon.io -->
<svg version="1.1" xmlns="http://www.w3.org/2000/svg" width="1035" height="1024" viewBox="0 0 1035 1024">
<title></title>
<g id="icomoon-ignore">
</g>
<path fill="#000" d="M784.802 381.345c27.995 57.232 36.887 121.948 25.358 184.604s-42.869 119.969-89.405 163.493c-46.537 43.526-105.811 70.961-169.101 78.28s-127.261-5.88-182.506-37.635-98.819-80.413-124.342-138.792c-25.521-58.388-31.624-123.416-17.423-185.522s47.973-118.027 96.329-159.51c48.357-41.49 108.753-66.356 172.309-70.953l69.692-108.582c-16.017-1.882-32.127-2.832-48.257-2.854-91.396 0.013-180.145 30.692-252.026 87.147s-122.734 135.387-144.413 224.179c-21.68 88.794-12.932 182.283 24.849 265.512 37.777 83.226 102.397 151.357 183.502 193.484 81.102 42.127 174.004 55.819 263.821 38.868s171.341-63.549 231.508-132.346 95.522-155.788 100.369-247.055c4.851-91.267-21.078-181.522-73.625-256.3l-66.636 103.997z"></path>
<path fill="#000" d="M517.314 331.054c-47.991 0-94.022 19.063-127.962 53.002s-53.003 79.968-53.003 127.964h104.56c0-15.115 4.479-29.883 12.881-42.452s20.331-22.36 34.293-28.135 29.32-7.297 44.15-4.351c14.821 2.945 28.439 10.228 39.119 20.909s17.965 24.303 20.909 39.119c2.946 14.821 1.436 30.182-4.351 44.15-5.789 13.957-15.58 25.892-28.135 34.292-12.569 8.393-27.337 12.881-42.452 12.881v104.56c47.991 0 94.023-19.063 127.964-53.003s53.002-79.968 53.002-127.962-19.063-94.023-53.002-127.964c-33.94-33.939-79.968-53.002-127.964-53.002z"></path>
</svg>
