<svg version="1.1" xmlns="http://www.w3.org/2000/svg" width="1024" height="1024" viewBox="0 0 1024 1024">
<path d="M869.416 56.014h-127.64c-14.755 0-26.717 11.962-26.717 26.717s11.962 26.717 26.717 26.717h127.64c24.885 0 45.136 20.251 45.136 45.138v127.638c0 14.755 11.962 26.717 26.717 26.717s26.717-11.962 26.717-26.717v-127.638c0-54.352-44.22-98.572-98.57-98.572z"></path>
<path d="M82.731 308.941c14.755 0 26.717-11.962 26.717-26.717v-127.638c0-24.887 20.251-45.138 45.136-45.138h127.64c14.755 0 26.717-11.962 26.717-26.717s-11.962-26.717-26.717-26.717h-127.64c-54.35 0-98.57 44.22-98.57 98.572v127.638c0 14.755 11.962 26.717 26.717 26.717z"></path>
<path d="M282.224 914.552h-127.64c-24.885 0-45.136-20.251-45.136-45.138v-127.638c0-14.755-11.962-26.717-26.717-26.717s-26.717 11.962-26.717 26.717v127.638c0 54.352 44.22 98.572 98.57 98.572h127.64c14.755 0 26.717-11.962 26.717-26.717s-11.962-26.717-26.717-26.717z"></path>
<path d="M941.269 715.059c-14.755 0-26.717 11.962-26.717 26.717v127.638c0 24.887-20.251 45.138-45.136 45.138h-127.64c-14.755 0-26.717 11.962-26.717 26.717s11.962 26.717 26.717 26.717h127.64c54.352 0 98.57-44.22 98.57-98.572v-127.638c0-14.755-11.962-26.717-26.717-26.717z"></path>
<path d="M664.547 251.942h84.741c11.573 0 20.988 9.415 20.988 20.988v84.739c0 14.755 11.962 26.717 26.717 26.717s26.717-11.962 26.717-26.717v-84.739c0-41.038-33.386-74.422-74.422-74.422h-84.741c-14.755 0-26.717 11.962-26.717 26.717s11.962 26.717 26.717 26.717z"></path>
<path d="M200.29 272.929v84.739c0 14.755 11.962 26.717 26.717 26.717s26.717-11.962 26.717-26.717v-84.739c0-11.573 9.417-20.988 20.988-20.988h84.741c14.755 0 26.717-11.962 26.717-26.717s-11.962-26.717-26.717-26.717h-84.741c-41.036 0-74.422 33.384-74.422 74.422z"></path>
<path d="M359.453 768.493h-84.741c-11.573 0-20.988-9.415-20.988-20.988v-84.739c0-14.755-11.962-26.717-26.717-26.717s-26.717 11.962-26.717 26.717v84.739c0 41.038 33.386 74.422 74.422 74.422h84.741c14.755 0 26.717-11.962 26.717-26.717s-11.962-26.717-26.717-26.717z"></path>
<path d="M823.71 747.505v-84.739c0-14.755-11.962-26.717-26.717-26.717s-26.717 11.962-26.717 26.717v84.739c0 11.573-9.417 20.988-20.988 20.988h-84.741c-14.755 0-26.717 11.962-26.717 26.717s11.962 26.717 26.717 26.717h84.741c41.036 0 74.422-33.384 74.422-74.422z"></path>
<path d="M57.79 512c0 14.755 11.962 26.717 26.717 26.717h854.979c14.755 0 26.717-11.962 26.717-26.717s-11.962-26.717-26.717-26.717h-854.979c-14.755 0-26.717 11.962-26.717 26.717z"></path>
</svg>
