<svg version="1.1" xmlns="http://www.w3.org/2000/svg" width="1024" height="1024" viewBox="0 0 1024 1024">
<path d="M810.073 419.607c-2.062-22.296-0.485-82.908 57.579-167.19 4.392-6.36 3.595-14.938-1.859-20.39-23.672-23.672-38.329-38.611-48.609-49.063-13.517-13.782-19.688-20.062-28.721-28.252-6.030-5.421-15.155-5.515-21.25-0.202-101.205 88.064-213.614 270.035-197.348 492.978 9.531 130.909 105.018 225.927 227.037 225.927 125.221 0 227.098-101.861 227.098-227.083 0-120.799-94.813-219.863-213.926-226.723zM796.902 841.412c-104.784 0-186.833-82.533-195.129-196.238 0 0 0 0 0-0.016-18.298-250.739 130.752-413.602 175.785-456.727 4.39 4.328 9.406 9.421 16.797 16.952 8.906 9.062 21.094 21.469 39.532 39.971-70.486 108.596-57.188 185.972-51.361 197.066 2.766 5.266 8.438 8.813 14.376 8.813 107.58 0 195.097 87.517 195.097 195.097 0 107.565-87.517 195.082-195.097 195.082z"></path>
<path d="M241.813 419.607c-2.078-22.234-0.547-82.799 57.579-167.19 4.376-6.36 3.594-14.938-1.859-20.39-23.626-23.626-38.267-38.548-48.532-49.001-13.562-13.813-19.75-20.11-28.782-28.315-6.032-5.421-15.157-5.499-21.25-0.218-101.205 88.064-213.63 270.005-197.396 492.994v0.016c9.563 130.893 105.064 225.911 227.083 225.911 125.222 0 227.099-101.861 227.099-227.083 0-120.813-94.815-219.894-213.942-226.723zM228.655 841.412c-104.767 0-186.863-82.533-195.175-196.254v0.016c-18.25-250.802 130.8-413.634 175.831-456.743 4.406 4.328 9.438 9.453 16.845 17 8.89 9.062 21.062 21.453 39.47 39.923-70.486 108.612-57.188 185.972-51.361 197.050 2.766 5.266 8.453 8.829 14.39 8.829 107.581 0 195.098 87.517 195.098 195.097 0 107.565-87.517 195.082-195.098 195.082z"></path>
</svg>
