<svg version="1.1" xmlns="http://www.w3.org/2000/svg" width="1024" height="1024" viewBox="0 0 1024 1024">
<path d="M1017.749 987.584l-311.572-311.574c64.716-71.854 104.49-166.592 104.49-270.678-0.002-223.498-181.834-405.332-405.334-405.332s-405.334 181.834-405.334 405.334 181.834 405.334 405.334 405.334c104.086 0 198.822-39.774 270.678-104.49l311.572 311.572c4.166 4.166 9.626 6.25 15.084 6.25s10.916-2.084 15.084-6.25c8.332-8.334 8.332-21.834-0.002-30.166zM405.334 768c-199.958 0-362.666-162.688-362.666-362.666s162.708-362.668 362.666-362.668 362.666 162.688 362.666 362.668-162.708 362.666-362.666 362.666z"></path>
</svg>
