<!-- Generated by IcoMoon.io -->
<svg version="1.1" xmlns="http://www.w3.org/2000/svg" width="1024" height="1024" viewBox="0 0 1024 1024">
<title></title>
<g id="icomoon-ignore">
</g>
<path d="M157.466 1.567h174.080c87.040 0 157.57 70.74 157.57 157.884v174.498c0 87.249-70.531 157.884-157.57 157.884h-174.080c-86.936 0.104-157.466-70.635-157.466-157.884v-174.498c0-87.249 70.531-157.884 157.466-157.884v0zM157.466 76.382c-45.766 0-82.86 37.198-82.86 83.069v174.498c0 45.871 37.094 83.069 82.86 83.069h174.080c45.766 0 82.86-37.198 82.86-83.069v-174.498c0-45.871-37.094-83.069-82.86-83.069h-174.080z"></path>
<path d="M692.454 1.567h174.080c87.040 0 157.466 70.74 157.466 157.884v174.498c0 87.249-70.531 157.884-157.466 157.884h-174.080c-87.040 0-157.57-70.74-157.57-157.884v-174.498c0-87.249 70.531-157.884 157.57-157.884v0z"></path>
<path d="M157.466 532.062h174.080c87.040 0 157.57 70.74 157.57 157.989v174.498c0 87.249-70.531 157.884-157.57 157.884h-174.080c-86.936 0-157.466-70.635-157.466-157.884v-174.498c0-87.249 70.531-157.989 157.466-157.989v0z"></path>
<path d="M692.454 532.062h174.080c87.040 0 157.466 70.74 157.466 157.989v174.498c0 87.249-70.531 157.884-157.466 157.884h-174.080c-87.040 0-157.57-70.74-157.57-157.884v-174.498c0-87.249 70.531-157.989 157.57-157.989v0z"></path>
</svg>
