<svg version="1.1" xmlns="http://www.w3.org/2000/svg" width="1024" height="1024" viewBox="0 0 1024 1024">
<path d="M900.629 207.268l-384.944-205.118c-5.711-3.048-12.556-3.005-18.223 0.107l-374.293 205.118c-6.138 3.369-9.946 9.807-9.946 16.812v267.937c0.225 220.251 130.717 419.509 332.52 507.748l51.953 22.64c4.855 2.117 10.384 2.128 15.25 0.021l58.541-25.281c205.546-86.325 339.269-287.508 339.29-510.443v-262.622c0-7.079-3.904-13.593-10.149-16.919zM872.449 486.81c-0.043 207.567-124.579 394.858-315.966 475.183l-0.128 0.064-50.98 22.009-44.296-19.325c-187.847-82.133-309.325-267.595-309.539-472.617v-256.591l355.257-194.702 365.651 194.841z"></path>
<path d="M365.406 479.697c-6.876-8.053-18.972-9.005-27.025-2.128-8.053 6.865-9.005 18.972-2.128 27.014l101.233 118.547c6.758 7.914 18.598 8.994 26.662 2.428l235.768-191.814c8.214-6.673 9.454-18.747 2.77-26.961-6.673-8.203-18.747-9.454-26.961-2.77l-221.245 179.987z"></path>
</svg>
