<svg height="512pt" viewBox="0 0 512 512" width="512pt" xmlns="http://www.w3.org/2000/svg"><path d="m499.585938 364.308594c-5.363282-1.308594-10.777344 1.976562-12.085938 7.339844-17.308594 70.863281-80.417969 120.355468-153.472656 120.355468-79.671875 0-145.746094-59.289062-156.449219-136.058594.132813 0 .265625.003907.398437.003907 98.132813 0 177.972657-79.839844 177.972657-177.972657 0-.140624-.003907-.277343-.003907-.414062 63.25 8.761719 115.710938 54.945312 131.421876 118.300781 1.328124 5.359375 6.75 8.625 12.109374 7.296875 5.359376-1.328125 8.628907-6.75 7.300782-12.109375-9.398438-37.890625-31.515625-72.1875-62.28125-96.570312-26.253906-20.8125-56.957032-33.492188-89.761719-37.246094-10.308594-88.398437-85.640625-157.234375-176.757813-157.234375-98.136718 0-177.976562 79.839844-177.976562 177.976562 0 91.128907 68.851562 166.46875 157.261719 176.761719 10.296875 88.410157 85.636719 157.261719 176.765625 157.261719 40.664062 0 78.945312-13.351562 110.707031-38.617188 30.8125-24.507812 52.898437-58.953124 62.191406-96.988281 1.308594-5.363281-1.976562-10.777343-7.339843-12.085937zm-163.632813-186.332032c0 87.105469-70.867187 157.976563-157.976563 157.976563-.636718 0-1.269531-.015625-1.90625-.023437-.007812-.636719-.023437-1.269532-.023437-1.90625 0-87.105469 70.871094-157.976563 157.980469-157.976563.632812 0 1.265625.011719 1.902344.019531.007812.636719.023437 1.269532.023437 1.910156zm-315.957031 0c0-87.109374 70.867187-157.980468 157.980468-157.980468 79.671876 0 145.742188 59.289062 156.449219 136.058594-.132812 0-.265625-.003907-.398437-.003907-98.136719 0-177.976563 79.839844-177.976563 177.972657 0 .136718.007813.265624.007813.402343-76.773438-10.703125-136.0625-76.777343-136.0625-156.449219zm0 0"/><path d="m509.070312 326.960938c-1.863281-1.871094-4.429687-2.929688-7.070312-2.929688-2.628906 0-5.210938 1.058594-7.070312 2.929688-1.859376 1.859374-2.929688 4.429687-2.929688 7.066406 0 2.632812 1.070312 5.199218 2.929688 7.070312 1.859374 1.859375 4.441406 2.929688 7.070312 2.929688 2.640625 0 5.207031-1.070313 7.070312-2.929688 1.867188-1.871094 2.925782-4.4375 2.925782-7.070312 0-2.636719-1.058594-5.207032-2.925782-7.066406zm0 0"/></svg>