<svg version="1.1" xmlns="http://www.w3.org/2000/svg" width="1024" height="1024" viewBox="0 0 1024 1024">
<path d="M595.952 889.781h-33.581v-164.546c0-9.274-7.517-16.79-16.79-16.79s-16.79 7.517-16.79 16.79v0 164.546h-436.55v-335.807h139.696c9.274 0 16.79-7.517 16.79-16.79s-7.517-16.79-16.79-16.79v0h-156.486c-9.274 0-16.79 7.517-16.79 16.79v0 352.598h-33.581c-9.274 0-16.79 7.517-16.79 16.79v0 33.581c0 46.366 37.586 83.952 83.952 83.952v0h436.55c46.366 0 83.952-37.586 83.952-83.952v0-33.581c0-9.274-7.517-16.79-16.79-16.79v0zM579.161 940.152c0 27.82-22.552 50.371-50.371 50.371v0h-33.581v-16.79c0-9.274-7.517-16.79-16.79-16.79s-16.79 7.517-16.79 16.79v0 16.79h-302.227v-16.79c0-9.274-7.517-16.79-16.79-16.79s-16.79 7.517-16.79 16.79v0 16.79h-33.581c-27.82 0-50.371-22.552-50.371-50.371v0-16.79h537.292z"></path>
<path d="M881.388 117.424h33.581c9.274 0 16.79-7.517 16.79-16.79s-7.517-16.79-16.79-16.79v0h-33.581c-27.82 0-50.371 22.552-50.371 50.371v0 16.79h-16.79c-9.274 0-16.79 7.517-16.79 16.79s7.517 16.79 16.79 16.79v0h16.79v50.371c0 9.274 7.517 16.79 16.79 16.79s16.79-7.517 16.79-16.79v0-50.371h16.79c9.274 0 16.79-7.517 16.79-16.79s-7.517-16.79-16.79-16.79v0h-16.79v-16.79c0-9.274 7.517-16.79 16.79-16.79v0z"></path>
<path d="M965.34 16.682h-201.484c-27.82 0-50.371 22.552-50.371 50.371v0 33.581c0 9.274 7.517 16.79 16.79 16.79s16.79-7.517 16.79-16.79v0-33.581c0-9.274 7.517-16.79 16.79-16.79v0h201.484c9.274 0 16.79 7.517 16.79 16.79v0 201.484c0 9.274-7.517 16.79-16.79 16.79v0h-201.484c-9.274 0-16.79-7.517-16.79-16.79v0-100.742c0-9.274-7.517-16.79-16.79-16.79s-16.79 7.517-16.79 16.79v0 100.742c0 27.82 22.552 50.371 50.371 50.371v0h201.484c27.82 0 50.371-22.552 50.371-50.371v0-201.484c0-27.82-22.552-50.371-50.371-50.371v0z"></path>
<path d="M797.436 688.297c0 37.092 30.069 67.161 67.161 67.161s67.161-30.069 67.161-67.161c0-37.092-30.069-67.161-67.161-67.161v0c-37.092 0-67.161 30.069-67.161 67.161v0zM898.178 688.297c0 18.546-15.035 33.581-33.581 33.581s-33.581-15.035-33.581-33.581c0-18.546 15.035-33.581 33.581-33.581v0c18.546 0 33.581 15.035 33.581 33.581v0z"></path>
<path d="M965.34 537.183h-201.484c-27.82 0-50.371 22.552-50.371 50.371v0 201.484c0 27.82 22.552 50.371 50.371 50.371v0h201.484c27.82 0 50.371-22.552 50.371-50.371v0-33.581c0-9.274-7.517-16.79-16.79-16.79s-16.79 7.517-16.79 16.79v0 33.581c0 9.274-7.517 16.79-16.79 16.79v0h-201.484c-9.274 0-16.79-7.517-16.79-16.79v0-201.484c0-9.274 7.517-16.79 16.79-16.79v0h201.484c9.274 0 16.79 7.517 16.79 16.79v0 100.742c0 9.274 7.517 16.79 16.79 16.79s16.79-7.517 16.79-16.79v0-100.742c0-27.82-22.552-50.371-50.371-50.371v0z"></path>
<path d="M385.569 215.648c2.513 1.58 5.569 2.519 8.845 2.519 0.019 0 0.038 0 0.057 0h-0.003c2.761-0.017 5.359-0.698 7.649-1.891l-0.093 0.044 100.742-50.371c5.466-2.844 9.135-8.465 9.135-14.943s-3.669-12.1-9.042-14.899l-0.093-0.044-100.742-50.371c-2.2-1.132-4.8-1.797-7.556-1.797-9.256 0-16.761 7.489-16.79 16.737v100.745c0 0.009 0 0.022 0 0.034 0 5.975 3.121 11.222 7.822 14.197l0.069 0.041zM411.258 127.834l46.341 23.171-46.341 23.171z"></path>
<path d="M428.048 302.118c83.458 0 151.113-67.656 151.113-151.113s-67.656-151.113-151.113-151.113c-83.458 0-151.113 67.656-151.113 151.113v0c0 83.458 67.656 151.113 151.113 151.113v0zM428.048 33.472c64.912 0 117.533 52.621 117.533 117.533s-52.621 117.533-117.533 117.533c-64.912 0-117.533-52.621-117.533-117.533v0c0-64.912 52.621-117.533 117.533-117.533v0z"></path>
<path d="M595.952 369.28c5.475 0 10.337-2.619 13.402-6.674l0.030-0.042 50.371-67.161c2.097-2.771 3.358-6.275 3.358-10.074 0-9.274-7.517-16.79-16.79-16.79-5.475 0-10.337 2.619-13.402 6.674l-0.030 0.042-50.371 67.161c-2.097 2.771-3.358 6.275-3.358 10.074 0 5.475 2.619 10.337 6.674 13.402l0.042 0.030c2.771 2.097 6.275 3.358 10.074 3.358v0z"></path>
<path d="M632.891 429.725c3.096 4.097 7.958 6.716 13.432 6.716v0c3.799 0 7.303-1.261 10.116-3.389l-0.042 0.030 67.161-50.371c4.097-3.096 6.716-7.958 6.716-13.432 0-9.274-7.517-16.79-16.79-16.79-3.799 0-7.303 1.261-10.116 3.389l0.042-0.030-67.161 50.371c-4.097 3.096-6.716 7.958-6.716 13.432 0 3.799 1.261 7.303 3.389 10.116l-0.030-0.042z"></path>
<path d="M797.436 466.664c-1.457-7.912-8.301-13.828-16.527-13.828-1.283 0-2.533 0.144-3.734 0.417l0.112-0.021-83.952 16.79c-8.568 0.883-15.195 8.063-15.195 16.79 0 9.32 7.555 16.874 16.874 16.874 0.591 0 1.175-0.030 1.751-0.090l-0.072 0.006h3.358l83.952-16.79c7.912-1.457 13.828-8.301 13.828-16.527 0-1.283-0.144-2.533-0.417-3.734l0.021 0.112z"></path>
<path d="M25.079 470.022h201.484c9.274 0 16.79-7.517 16.79-16.79v0-268.646c0-9.274-7.517-16.79-16.79-16.79v0h-201.484c-9.274 0-16.79 7.517-16.79 16.79v0 268.646c0 9.274 7.517 16.79 16.79 16.79v0zM41.87 201.376h167.904v235.065h-167.904z"></path>
<path d="M159.402 234.957h-33.581c-9.274 0-16.79 7.517-16.79 16.79s7.517 16.79 16.79 16.79v0h33.581c9.274 0 16.79-7.517 16.79-16.79s-7.517-16.79-16.79-16.79v0z"></path>
<path d="M159.402 302.118h-67.161c-9.274 0-16.79 7.517-16.79 16.79s7.517 16.79 16.79 16.79v0h67.161c9.274 0 16.79-7.517 16.79-16.79s-7.517-16.79-16.79-16.79v0z"></path>
<path d="M159.402 369.28h-67.161c-9.274 0-16.79 7.517-16.79 16.79s7.517 16.79 16.79 16.79v0h67.161c9.274 0 16.79-7.517 16.79-16.79s-7.517-16.79-16.79-16.79v0z"></path>
<path d="M581.176 464.985c-2.963-5.087-8.392-8.453-14.608-8.453-9.305 0-16.848 7.543-16.848 16.848 0 3.089 0.832 5.986 2.283 8.475l-0.043-0.080 74.046 128.11-268.646 100.742s0 0-1.175 0h-1.343l-72.702 41.976c-4.82 2.834-10.618 4.508-16.807 4.508-3.1 0-6.101-0.42-8.95-1.206l0.236 0.056c-8.73-2.412-15.87-8.021-20.23-15.457l-0.086-0.158-33.581-58.095c-2.384-4.496-3.784-9.828-3.784-15.487 0-12.196 6.501-22.873 16.227-28.756l0.15-0.084 58.095-33.581 41.976 72.702c2.957 5.054 8.358 8.395 14.54 8.395 0.023 0 0.047 0 0.070 0h-0.003c0.020 0 0.043 0 0.067 0 9.274 0 16.79-7.517 16.79-16.79 0-3.092-0.835-5.987-2.293-8.475l0.043 0.079-43.319-74.885 210.719-173.78 6.884 11.921c2.963 5.087 8.392 8.453 14.608 8.453 9.305 0 16.848-7.543 16.848-16.848 0-3.089-0.832-5.986-2.283-8.475l0.043 0.080-16.79-29.047c-2.479-4.184-6.615-7.163-11.483-8.044l-0.103-0.016c-0.935-0.185-2.011-0.291-3.11-0.291-4.060 0-7.783 1.441-10.686 3.84l0.028-0.023-235.065 193.761-71.527 41.304c-20.092 11.857-33.358 33.397-33.358 58.035 0 6.416 0.899 12.623 2.58 18.5l-0.115-0.473-16.79 9.571c-15.219 8.858-25.287 25.094-25.287 43.681 0 23.198 15.682 42.734 37.023 48.583l0.354 0.083c3.869 1.066 8.312 1.679 12.898 1.679 0.069 0 0.14 0 0.209 0h-0.010c9.268-0.040 17.947-2.527 25.434-6.848l-0.249 0.132 16.79-9.571c7.859 8.111 17.782 14.176 28.924 17.35l0.46 0.112c5.138 1.493 11.040 2.353 17.143 2.353 0.171 0 0.342-0.001 0.513-0.002h-0.026c0.045 0 0.099 0 0.153 0 12.321 0 23.856-3.369 33.733-9.235l-0.305 0.168 14.608-8.395 33.581 58.263c8.876 15.143 25.070 25.151 43.602 25.151 9.226 0 17.873-2.481 25.309-6.811l-0.24 0.129c15.184-8.866 25.223-25.083 25.223-43.644 0-9.278-2.508-17.969-6.883-25.433l0.129 0.237-30.558-53.225 251.855-94.53c4.631-1.775 8.207-5.405 9.87-9.958l0.037-0.116c0.629-1.692 0.992-3.646 0.992-5.686 0-3.033-0.804-5.878-2.21-8.333l0.043 0.082zM184.588 751.932c-2.41 1.417-5.309 2.254-8.404 2.254-1.55 0-3.051-0.21-4.475-0.603l0.118 0.027c-4.386-1.166-7.986-3.945-10.2-7.647l-0.042-0.077c-1.417-2.41-2.254-5.309-2.254-8.404 0-1.55 0.21-3.051 0.603-4.475l-0.027 0.118c1.206-4.411 4.045-8.015 7.811-10.199l0.081-0.043 14.608-8.395 16.79 29.047zM405.549 798.945c1.417 2.41 2.254 5.309 2.254 8.404 0 1.55-0.21 3.051-0.603 4.475l0.027-0.118c-1.246 4.343-4.076 7.884-7.81 10.031l-0.082 0.043c-2.401 1.403-5.286 2.231-8.364 2.231-6.134 0-11.499-3.289-14.429-8.199l-0.042-0.077-33.581-58.263 27.872-15.951h1.343z"></path>
</svg>
