<svg id="Layer_1" enable-background="new 0 0 480.037 480.037" height="512" viewBox="0 0 480.037 480.037" width="512" xmlns="http://www.w3.org/2000/svg"><path d="m313.037 329.019v151h-65v-142c0-4.418-3.582-8-8-8s-8 3.582-8 8v142h-65v-151c0-13.233 10.766-24 24-24h98c13.234 0 24 10.766 24 24zm131.995-75.47c-27.739 11.362-60.124 6.76-83.778-13.202-3.027-2.554-7.402-2.56-10.427-.004-30.46 25.722-75.08 25.733-105.552.023-3.04-2.565-7.435-2.565-10.475 0-30.486 25.721-75.131 25.692-105.569-.035-3.027-2.558-7.405-2.554-10.433.003-23.663 19.982-56.049 24.583-83.747 13.215-5.255-2.157-11.013 1.723-11.013 7.403v179.068c0 22.091 17.909 40 40 40h87v-151c0-22.056 17.944-40 40-40h98c22.056 0 40 17.944 40 40v151h87c22.091 0 40-17.909 40-40v-179.065c-.001-5.676-5.753-9.557-11.006-7.406zm-384.995-117.53c-4.595 0-8.284-3.873-7.983-8.532.275-4.252 3.996-7.468 8.257-7.468h404.792c5.757 0 9.63-5.898 7.34-11.181l-45.066-103.999c-1.27-2.93-4.15-4.82-7.34-4.82h-360c-3.19 0-6.07 1.89-7.34 4.82l-52 120c-.933 2.12-.66-1.102-.66 52.81.06 36.39 29.67 65.99 66 65.99 22.69 0 42.756-11.542 54.638-29.074 1.614-2.382 5.069-2.382 6.683.001 26.271 38.78 83.101 38.694 109.34.028 1.614-2.379 5.065-2.379 6.679 0 26.259 38.697 83.049 38.717 109.321-.001 1.591-2.345 5.037-2.427 6.624-.08 12.023 17.774 32.474 29.414 55.568 29.12 36.284-.461 65.147-30.72 65.147-67.007v-32.608c0-4.418-3.582-8-8-8h-412z"/></svg>