<?xml version="1.0" encoding="iso-8859-1"?>
<!-- Generator: Adobe Illustrator 19.0.0, SVG Export Plug-In . SVG Version: 6.00 Build 0)  -->
<svg version="1.1" id="Capa_1" xmlns="http://www.w3.org/2000/svg" xmlns:xlink="http://www.w3.org/1999/xlink" x="0px" y="0px"
	 viewBox="0 0 461.766 461.766" style="enable-background:new 0 0 461.766 461.766;" xml:space="preserve">
<g>
	<g>
		<path d="M361.816,219.457c-0.192-0.005-0.385-0.009-0.577-0.011v0c-8.462,0.078-16.613,3.202-22.96,8.8
			c-4.633-15.3-18.577-25.888-34.56-26.24c-7.951,0.12-15.625,2.942-21.76,8c-3.147-17.272-17.895-30.022-35.44-30.64
			c-7.49,0.017-14.778,2.427-20.8,6.88v-19.36c43.557-21.561,61.387-74.35,39.826-117.906
			c-21.561-43.557-74.35-61.387-117.906-39.826c-43.557,21.561-61.387,74.35-39.826,117.906
			c8.554,17.28,22.546,31.272,39.826,39.826v84.56l-18.24-24.56c-12.636-16.686-36.386-20.013-53.12-7.44
			c-15.641,13.392-17.77,36.806-4.8,52.8l70.48,138.56c22.16,43.6,57.52,49.68,72,50.24c12.48,0.56,25.28,0.72,37.52,0.72
			c38.56,0,72-2,72-2h0.8c57.84,0,74-62.16,74.48-95.28v-106C399.335,237.507,382.795,220.033,361.816,219.457z M147.319,109.834
			c0,0.004,0,0.008,0,0.011v38.24c-20.41-13.248-32.748-35.908-32.8-60.24c-0.198-39.764,31.876-72.16,71.64-72.358
			c39.764-0.198,72.16,31.876,72.358,71.64c0.123,24.649-12.372,47.648-33.118,60.959v-38.24
			c0.003-21.561-17.473-39.043-39.034-39.046C164.803,70.797,147.322,88.273,147.319,109.834z M322.199,443.766
			c-0.56,0-57.04,3.52-108,1.28c-11.36-0.48-40-5.52-58.08-41.52l-70.72-139.28c-0.247-0.482-0.541-0.938-0.88-1.36
			c-7.962-9.114-7.068-22.947,2-30.96c9.721-6.996,23.258-4.894,30.4,4.72l32,44.08l0.48,0.4c0.704,0.752,1.512,1.399,2.4,1.92
			l1.36,0.48h1.6h0.56h0.88h1.6l1.44-0.64h0.8l0.4-0.4c0.418-0.356,0.794-0.759,1.12-1.2c0.305-0.373,0.573-0.775,0.8-1.2
			c0.201-0.438,0.361-0.893,0.48-1.36c0.053-0.532,0.053-1.068,0-1.6c0,0,0,0,0-0.56v-166.72c0-12.725,10.315-23.04,23.04-23.04
			c12.725,0,23.04,10.315,23.04,23.04v141.6c0,4.418,3.582,8,8,8s8-3.582,8-8v-33.04c-1.235-11.465,7.059-21.761,18.525-22.995
			c11.465-1.235,21.761,7.059,22.995,18.525c0.16,1.486,0.16,2.985,0,4.471v57.52c0,4.418,3.582,8,8,8s8-3.582,8-8v-34.88
			c-1.235-11.465,7.059-21.761,18.525-22.995c11.465-1.235,21.761,7.059,22.995,18.525c0.16,1.486,0.16,2.985,0,4.471v64
			c0,4.418,3.582,8,8,8s8-3.582,8-8v-46.56c-1.235-11.465,7.059-21.761,18.525-22.995c11.465-1.235,21.761,7.059,22.995,18.525
			c0.16,1.486,0.16,2.985,0,4.471l0.48,105.84C381.959,367.606,380.039,444.326,322.199,443.766z"/>
	</g>
</g>
<g>
</g>
<g>
</g>
<g>
</g>
<g>
</g>
<g>
</g>
<g>
</g>
<g>
</g>
<g>
</g>
<g>
</g>
<g>
</g>
<g>
</g>
<g>
</g>
<g>
</g>
<g>
</g>
<g>
</g>
</svg>
