<svg height="512" viewBox="0 0 512 512" width="512" xmlns="http://www.w3.org/2000/svg"><path d="m349.581 162.456c-6.143-89.432-80.893-162.456-174.581-162.456-96.495 0-175 78.505-175 175 0 93.665 73.009 168.445 162.457 174.586 6.473 90.643 82.28 162.414 174.543 162.414 96.495 0 175-78.505 175-175 0-92.264-71.774-168.073-162.419-174.544zm-319.581 12.544c0-79.953 65.047-145 145-145 76.876 0 138.625 59.472 144.533 132.87-35.862 3.57-68.567 18.016-94.773 39.977l-34.53-103.59c-2.042-6.126-7.773-10.257-14.23-10.257s-12.188 4.131-14.23 10.257l-48 144c-3.248 9.743 4.046 19.747 14.232 19.747 6.28 0 12.133-3.975 14.229-10.261l7.247-21.743h48.378c-19.154 25.083-31.696 55.468-34.987 88.541-72.126-5.773-132.869-66.514-132.869-144.541zm162.522 26h-33.044l16.522-49.566zm144.478 281c-79.953 0-145-65.047-145-145s65.047-145 145-145 145 65.047 145 145-65.047 145-145 145z"/><path d="m312 265h-40c-8.284 0-15 6.716-15 15s6.716 15 15 15h24.229c-2.354 25.746-10.737 66.997-33.599 85.287-6.469 5.175-7.518 14.614-2.343 21.083 5.191 6.488 14.634 7.503 21.083 2.342 45.111-36.087 45.63-120.151 45.63-123.712 0-8.284-6.716-15-15-15z"/><path d="m400 305h-17v-41c0-8.284-6.716-15-15-15s-15 6.716-15 15v144c0 8.284 6.716 15 15 15s15-6.716 15-15v-73h17c8.284 0 15-6.716 15-15s-6.716-15-15-15z"/><path d="m384 63c35.841 0 65 29.159 65 65 0 8.284 6.716 15 15 15s15-6.716 15-15c0-52.383-42.617-95-95-95-8.284 0-15 6.716-15 15s6.716 15 15 15z"/><path d="m128 449c-35.841 0-65-29.159-65-65 0-8.284-6.716-15-15-15s-15 6.716-15 15c0 52.383 42.617 95 95 95 8.284 0 15-6.716 15-15s-6.716-15-15-15z"/></svg>