<svg version="1.1" xmlns="http://www.w3.org/2000/svg" width="1024" height="1024" viewBox="0 0 1024 1024">
<path d="M653.518 370.97c-13.249 0-23.986 10.737-23.986 23.986v453.34c0 13.239 10.737 23.986 23.986 23.986s23.986-10.747 23.986-23.986v-453.34c0-13.249-10.737-23.986-23.986-23.986z"></path>
<path d="M370.48 370.97c-13.249 0-23.986 10.737-23.986 23.986v453.34c0 13.239 10.737 23.986 23.986 23.986s23.986-10.747 23.986-23.986v-453.34c0-13.249-10.737-23.986-23.986-23.986z"></path>
<path d="M164.199 304.811v590.97c0 34.93 12.809 67.733 35.183 91.269 22.272 23.602 53.266 37.001 85.704 37.057h453.827c32.447-0.056 63.441-13.455 85.704-37.057 22.375-23.537 35.183-56.34 35.183-91.269v-590.97c44.477-11.805 73.298-54.774 67.349-100.414-5.959-45.63-44.833-79.764-90.857-79.773h-122.808v-29.982c0.141-25.213-9.829-49.424-27.678-67.236-17.849-17.803-42.098-27.716-67.311-27.509h-212.99c-25.213-0.206-49.462 9.707-67.311 27.509-17.849 17.812-27.819 42.023-27.678 67.236v29.982h-122.808c-46.024 0.009-84.898 34.143-90.857 79.773-5.949 45.64 22.871 88.609 67.349 100.414zM738.912 976.133h-453.827c-41.011 0-72.914-35.229-72.914-80.354v-588.861h599.655v588.861c0 45.124-31.904 80.354-72.914 80.354zM358.488 94.641c-0.159-12.49 4.75-24.511 13.614-33.328 8.854-8.817 20.903-13.661 33.403-13.446h212.99c12.499-0.215 24.548 4.629 33.403 13.446 8.864 8.808 13.773 20.838 13.614 33.328v29.982h-307.023zM187.708 172.596h648.584c23.846 0 43.175 19.329 43.175 43.175s-19.329 43.175-43.175 43.175h-648.584c-23.846 0-43.175-19.329-43.175-43.175s19.329-43.175 43.175-43.175z"></path>
<path d="M511.999 370.97c-13.249 0-23.986 10.737-23.986 23.986v453.34c0 13.239 10.737 23.986 23.986 23.986s23.986-10.747 23.986-23.986v-453.34c0-13.249-10.737-23.986-23.986-23.986z"></path>
</svg>
