<svg version="1.1" xmlns="http://www.w3.org/2000/svg" viewBox="0 0 184.979 184.979">
<path style="fill:#010002;" d="M121.539,122.24c0.585,0.585,1.349,0.871,2.112,0.871c0.764,0,1.528-0.292,2.112-0.871 c1.164-1.164,1.164-3.055,0-4.219L94.605,86.869c0,0,0,0-0.006-0.006l-2.106-2.106l-2.106,2.106c0,0,0,0-0.006,0.006 l-31.159,31.153c-1.164,1.164-1.164,3.055,0,4.219c1.164,1.164,3.055,1.164,4.219,0l26.069-26.063v52.556 c0,1.647,1.337,2.983,2.983,2.983c1.647,0,2.983-1.337,2.983-2.983V96.177L121.539,122.24z"/>
<path style="fill:#010002;" d="M151.057,67.673C143.712,47.01,124.32,33.25,102.236,33.25c-20.812,0-39.531,12.518-47.628,31.493 c-3.813-1.766-7.96-2.685-12.172-2.685c-16.051,0-29.118,13.044-29.148,29.088C4.941,97.531,0,107.448,0,117.998 c0,18.593,15.168,33.719,34.31,33.725c0.215,0,0.43,0.006,0.621,0.006c0.203,0,0.382,0,0.525-0.012h31.445 c1.647,0,2.983-1.337,2.983-2.983s-1.337-2.983-2.983-2.983H35.3c-0.292,0.018-0.597,0.006-0.889,0l-0.609-0.006 c-15.347,0-27.835-12.447-27.835-27.752c0-9.147,4.511-17.722,12.065-22.925l1.372-1.366l-0.149-2.494 c0-12.781,10.4-23.181,23.181-23.181c4.284,0,8.491,1.205,12.166,3.479l3.156,1.957l1.229-3.509 c6.432-18.384,23.808-30.729,43.254-30.729c20.073,0,37.639,12.847,43.707,31.976l0.555,1.748l1.814,0.292 c17.781,2.876,30.694,18.032,30.694,36.04c0,20.114-16.403,36.475-36.559,36.475h-24.375c-1.647,0-2.983,1.337-2.983,2.983 s1.337,2.983,2.983,2.983h24.375c23.45,0,42.526-19.04,42.526-42.442C184.973,88.933,170.814,71.719,151.057,67.673z"/>
</svg>
