<svg version="1.1" xmlns="http://www.w3.org/2000/svg" width="1024" height="1024" viewBox="0 0 1024 1024">
<path d="M505.535 493.262c67.779 0 126.464-24.31 174.427-72.273 47.947-47.955 72.265-106.631 72.265-174.419 0-67.764-24.31-126.449-72.273-174.419-47.963-47.947-106.647-72.257-174.419-72.257-67.787 0-126.464 24.31-174.419 72.265s-72.273 106.639-72.273 174.412c0 67.787 24.317 126.472 72.273 174.427 47.971 47.947 106.655 72.265 174.419 72.265zM373.563 114.596c36.797-36.797 79.962-54.683 131.973-54.683 52.003 0 95.176 17.887 131.981 54.683 36.797 36.805 54.691 79.978 54.691 131.973 0 52.011-17.895 95.176-54.691 131.981-36.805 36.805-79.978 54.691-131.981 54.691-51.995 0-95.16-17.895-131.973-54.691-36.805-36.797-54.699-79.97-54.699-131.981 0-51.995 17.895-95.168 54.699-131.973z"></path>
<path d="M937.18 787.464c-1.383-19.957-4.181-41.728-8.299-64.717-4.157-23.161-9.51-45.056-15.917-65.069-6.626-20.684-15.62-41.11-26.756-60.685-11.541-20.316-25.107-38.008-40.328-52.566-15.917-15.23-35.405-27.475-57.942-36.406-22.458-8.885-47.346-13.386-73.969-13.386-10.455 0-20.566 4.29-40.094 17.004-12.019 7.838-26.075 16.902-41.767 26.928-13.417 8.549-31.593 16.558-54.042 23.81-21.903 7.087-44.142 10.682-66.1 10.682-21.942 0-44.181-3.595-66.1-10.682-22.427-7.244-40.61-15.253-54.003-23.802-15.542-9.932-29.608-18.996-41.806-26.943-19.512-12.714-29.623-17.004-40.078-17.004-26.631 0-51.511 4.509-73.961 13.401-22.521 8.916-42.017 21.16-57.949 36.406-15.222 14.565-28.787 32.249-40.32 52.558-11.119 19.574-20.121 39.992-26.748 60.693-6.399 20.012-11.752 41.9-15.909 65.061-4.126 22.958-6.915 44.735-8.299 64.74-1.359 19.559-2.047 39.914-2.047 60.482 0 53.464 16.996 96.746 50.511 128.667 33.101 31.499 76.891 47.471 130.16 47.471h493.166c53.253 0 97.043-15.972 130.152-47.471 33.523-31.898 50.519-75.196 50.519-128.675-0.008-20.637-0.703-40.993-2.070-60.497zM847.349 933.151c-21.872 20.816-50.909 30.937-88.777 30.937h-493.158c-37.875 0-66.912-10.119-88.777-30.929-21.45-20.418-31.874-48.291-31.874-85.19 0-19.191 0.633-38.141 1.898-56.332 1.234-17.848 3.759-37.453 7.502-58.285 3.696-20.574 8.4-39.883 13.995-57.363 5.368-16.762 12.69-33.358 21.771-49.346 8.666-15.237 18.637-28.311 29.639-38.844 10.291-9.854 23.263-17.918 38.547-23.966 14.136-5.595 30.022-8.658 47.268-9.119 2.102 1.117 5.845 3.251 11.909 7.205 12.339 8.041 26.561 17.215 42.282 27.256 17.723 11.299 40.556 21.505 67.834 30.311 27.889 9.018 56.332 13.597 84.565 13.597s56.684-4.579 84.557-13.589c27.303-8.822 50.128-19.020 67.873-30.334 16.089-10.283 29.912-19.191 42.251-27.24 6.063-3.946 9.807-6.087 11.909-7.205 17.254 0.461 33.14 3.524 47.283 9.119 15.276 6.048 28.248 14.12 38.539 23.966 11.002 10.525 20.973 23.599 29.639 38.852 9.088 15.98 16.417 32.585 21.778 49.33 5.603 17.504 10.314 36.805 14.003 57.363 3.735 20.871 6.267 40.485 7.502 58.301v0.016c1.273 18.121 1.914 37.063 1.922 56.309-0.008 36.906-10.432 64.772-31.882 85.182z"></path>
</svg>
