<!-- Generated by IcoMoon.io -->
<svg version="1.1" xmlns="http://www.w3.org/2000/svg" width="1616" height="1024" viewBox="0 0 1616 1024">
<title></title>
<g id="icomoon-ignore">
</g>
<path fill="#000" d="M646.998 271.437l-82.165 482.172h131.412l82.233-482.172z"></path>
<path fill="#000" d="M454.65 271.979l-128.705 328.83-13.722-49.649c-25.383-59.824-97.44-145.741-182.041-199.885l117.687 402.104 139.048-0.236 206.95-481.261-139.217 0.101z"></path>
<path fill="#000" d="M262.335 306.488c-7.638-29.371-29.777-38.125-57.254-39.172h-203.74l-1.69 9.599c158.551 38.464 263.46 131.14 306.994 242.574l-44.311-212.999z"></path>
<path fill="#000" d="M1044.809 363.878c42.991-0.675 74.155 8.72 98.355 18.453l11.863 5.576 17.779-104.507c-26.026-9.768-66.819-20.245-117.72-20.245-129.855 0-221.382 65.401-222.094 159.124-0.844 69.255 65.199 107.92 115.085 131.005 51.204 23.659 68.374 38.699 68.137 59.824-0.405 32.279-40.828 47.082-78.582 47.082-52.625 0-80.576-7.267-123.738-25.247l-16.933-7.706-18.488 107.92c30.758 13.485 87.505 25.079 146.416 25.688 138.135 0 227.906-64.623 228.851-164.77 0.574-54.787-34.475-96.597-110.42-130.903-45.966-22.375-74.087-37.246-73.817-59.824 0-20.042 23.862-41.472 75.306-41.472z"></path>
<path fill="#000" d="M1510.049 271.979h-101.532c-31.535 0-54.991 8.585-68.85 40.017l-195.121 441.885h137.999c0 0 22.508-59.417 27.613-72.431 15.108 0 149.188 0.202 168.284 0.202 3.92 16.832 16.021 72.229 16.021 72.229h121.912l-106.331-481.903zM1347.983 582.759c10.815-27.682 52.354-134.756 52.354-134.756-0.709 1.318 10.714-27.884 17.509-46.034l8.857 41.573c0 0 25.18 115.118 30.453 139.217h-109.171z"></path>
</svg>
