<svg version="1.1" xmlns="http://www.w3.org/2000/svg" width="1024" height="1024" viewBox="0 0 1024 1024">
<path d="M977.456 516.296v-143.923c0-48.803-37.855-88.492-85.682-92.341l-133.658-233.454c-12.386-21.591-32.386-37.024-56.319-43.432-23.819-6.364-48.727-3.022-70.045 9.386l-458.188 266.749h-80.472c-51.341 0-93.091 41.749-93.091 93.091v558.544c0 51.341 41.749 93.091 93.091 93.091h791.273c51.341 0 93.091-41.749 93.091-93.091v-143.923c27.030-9.639 46.545-35.23 46.545-65.531v-139.636c0-30.301-19.514-55.892-46.545-65.531zM837.689 279.281h-202.846l152.136-88.573 50.71 88.573zM763.855 150.316l-221.517 128.965h-91.882l290.425-169.090 22.974 40.126zM655.182 52.758c10.523-6.159 22.817-7.796 34.569-4.658 11.886 3.181 21.796 10.863 27.955 21.613l0.048 0.085-359.803 209.482h-91.878l389.109-226.522zM930.909 930.917c0 25.658-20.886 46.545-46.545 46.545h-791.273c-25.658 0-46.545-20.886-46.545-46.545v-558.544c0-25.658 20.886-46.545 46.545-46.545h791.273c25.658 0 46.545 20.886 46.545 46.545v139.636h-139.636c-77 0-139.636 62.636-139.636 139.636s62.636 139.636 139.636 139.636h139.636v139.636zM977.456 721.463c0 12.84-10.431 23.273-23.273 23.273h-162.909c-51.341 0-93.091-41.749-93.091-93.091s41.749-93.091 93.091-93.091h162.909c12.84 0 23.273 10.431 23.273 23.273v139.636z"></path>
<path d="M791.273 605.1c-25.658 0-46.545 20.886-46.545 46.545s20.886 46.545 46.545 46.545c25.658 0 46.545-20.886 46.545-46.545 0.002-25.658-20.884-46.545-46.545-46.545z"></path>
</svg>
