<svg version="1.1" xmlns="http://www.w3.org/2000/svg" width="1024" height="1024" viewBox="0 0 1024 1024">
<path d="M967.556 67.119l-10.589-10.589c-36.455-36.451-84.918-56.528-136.47-56.528s-100.016 20.077-136.467 56.528l-169.458 169.449c-9.569 9.569-9.569 25.082 0 34.651 9.573 9.569 25.088 9.569 34.654 0l169.458-169.449c27.192-27.196 63.35-42.172 101.813-42.172 38.461 0 74.62 14.977 101.819 42.175l10.589 10.589c56.146 56.142 56.146 147.497 0 203.639l-307.124 307.128c-56.146 56.139-147.49 56.142-203.642-0.003l-10.589-10.589c-20.246-20.25-33.877-45.727-39.411-73.684-2.633-13.274-15.529-21.906-28.796-19.273-13.274 2.63-21.906 15.522-19.276 28.796 7.429 37.507 25.699 71.678 52.836 98.813l10.589 10.589c37.634 37.631 87.045 56.443 136.47 56.436 49.419-0.003 98.853-18.815 136.474-56.436l307.128-307.128c75.248-75.248 75.248-197.69-0.007-272.944z"></path>
<path d="M474.86 763.457l-169.452 169.452c-56.146 56.146-147.497 56.139-203.633 0l-10.589-10.592c-56.146-56.146-56.146-147.494 0-203.639l307.124-307.128c56.146-56.142 147.497-56.139 203.639-0.003l10.589 10.592c20.25 20.25 33.88 45.727 39.421 73.684 2.63 13.274 15.525 21.916 28.796 19.273 13.278-2.63 21.903-15.525 19.27-28.8-7.429-37.507-25.703-71.674-52.836-98.807l-10.592-10.592c-75.248-75.251-197.696-75.248-272.944 0l-307.128 307.128c-36.448 36.455-56.525 84.921-56.525 136.474s20.077 100.019 56.528 136.467l10.592 10.595c37.628 37.624 87.048 56.436 136.47 56.436s98.846-18.812 136.47-56.436l169.452-169.452c9.569-9.569 9.569-25.085 0-34.651-9.569-9.569-25.082-9.573-34.654 0z"></path>
</svg>
